<svg xmlns="http://www.w3.org/2000/svg" viewBox="0 0 689.92 679.55"><defs><style>.cls-1{fill:#fff;}</style></defs><g id="Layer_2" data-name="Layer 2"><g id="Layer_1-2" data-name="Layer 1"><path class="cls-1" d="M606.89,225.35c-2.1.85-4.17,1.79-6.53,1.17a30.66,30.66,0,0,1,5-1.76c6.95-1.24,13.65-3.54,20.73-4.32,8-.88,15.83-2.46,23.76-3.65,7.42-1.12,14.86-2.09,22.28-3.18,3.54-.52,7.07-1.14,10.6-1.76,2-.36,4-.78,6-1.2.72-.16,1.32-.56,1.16-1.4a1.19,1.19,0,0,0-.81-.78c-3-.3-6-1-9.1-.41-6.6,1.2-13.26,2.12-19.89,3.15,0-.18-.08-.36-.13-.53a18.88,18.88,0,0,1,5.26-1.48,5.32,5.32,0,0,0,4.37-2.21c1.57.15,3.15.37,4.42-1l-4.39,1c-1.48.4-3,.82-4.45,1.21-3,.81-6.18,1.39-9.13,2.47a27.25,27.25,0,0,1-7.2,1.59c-3.32.27-6.64.6-9.94,1-5.92.8-11.84,1.59-17.72,2.6-4.12.71-8.19,1.74-12.26,2.7-7.06,1.68-14.1,3.42-21.15,5.15-1.74.43-3.44,1-5.19,1.38-8.2,1.69-16.41,3.33-24.62,5-.56.12-1.36.32-1.71,0-1.48-1.15-2.66-.41-4,.26a20.54,20.54,0,0,1-3.59,1.31c-6.07,1.75-12.12,3.58-18.23,5.15-8.19,2.11-16.42,4-24.64,6-3,.71-5.89,1.93-8.91.23l.08.07a7.1,7.1,0,0,1,1.84-1.12q15.92-4,31.85-7.85c6.14-1.51,12.29-3,18.41-4.51q17.15-4.32,34.27-8.73c1.06-.27,2.09-.67,3.13-1a3.5,3.5,0,0,0-2.21-.06c-7.54,1.88-15.06,3.85-22.62,5.66-11.46,2.76-23,5.36-34.42,8.12-6.4,1.54-12.75,3.25-19.12,4.89-4,1-7.95,2-11.91,3.11a3,3,0,0,1-3.55-.9,10.89,10.89,0,0,1,1.31-.53c6.86-1.8,13.7-3.68,20.59-5.35,16.19-3.9,32.41-7.68,48.61-11.54,19.28-4.6,38.54-9.26,57.84-13.81,10.39-2.45,20.83-4.71,31.24-7.08,3.58-.81,7.16-1.67,10.73-2.52.64-.15,1.44-.19,1.26-1.36a8.21,8.21,0,0,0-5.38.55,27.41,27.41,0,0,1-3.54,1.4c-9.41,2.49-19,4.15-28.44,6.51-18.48,4.62-37.06,8.84-55.59,13.25-11.39,2.71-22.77,5.48-34.16,8.16-5,1.17-10,2.11-15,3.3q-6.48,1.54-12.86,3.44c-2,.57-3.32.18-4.25-1.62-3.2.86-5.93-1.83-9.11-.83l3.82,1.22c-.46.39-.57.55-.71.59-4.54,1.21-9.08,2.42-13.63,3.58a3.8,3.8,0,0,1-2-.07c-2.74-1-5.44-2-8.14-3-.47-2.42-.49-2.54,1.62-3.2q5.87-1.83,11.81-3.44c9-2.42,18-4.83,27-7.13,6.62-1.69,13.29-3.19,19.94-4.8,10.13-2.44,20.24-5,30.4-7.33,8.9-2.05,17.84-3.89,26.76-5.85.32-.07.58-.43,1.33-1-1.08,0-1.56,0-2,0-2.91.25-5.62,1.32-8.43,2-12.8,3-25.64,5.89-38.44,8.95q-21.31,5.12-42.57,10.5c-8.44,2.14-16.81,4.58-25.22,6.86A23,23,0,0,1,475,231l-.21-.81c1-2.17,3.29-.5,5.39-1.32l-3.34-.71c-1.91-.41-1.95-.67-1.82-2.57a25.6,25.6,0,0,0-.14-6c-.48-3-1.35-6-1.94-8.94-.26-1.34.25-1.94,1.61-2a24.07,24.07,0,0,1,3.05.16c.1-1.31,1.24-1.4,2.15-1.64,5.12-1.36,10.22-2.81,15.39-4q21.88-4.95,43.81-9.68c2.7-.58,5.45-.65,8.18-1.51,4-1.28,8.36-1.64,12.55-2.46a28,28,0,0,0,3.09-1,5.72,5.72,0,0,0,4.34-.6l-4.33.6a2.74,2.74,0,0,1-.48.17c-7.24,1.1-14.48,2.21-21.74,3.26a7.54,7.54,0,0,1-2.19-.36L530.15,190a12.63,12.63,0,0,0,8.26,1.58,2.68,2.68,0,0,1-2,1.7c-4.53.87-9,1.88-13.57,2.74-1.74.33-3.78-.07-5.25.7-2.36,1.23-4.88,1.42-7.33,2q-16.92,4.22-33.85,8.31a27.6,27.6,0,0,1-3,.41c-.16-.79-.29-1.29-.36-1.79-.59-4.82-1.14-9.66-1.78-14.48a19.69,19.69,0,0,0-3-8.11,12.68,12.68,0,0,1-1.52-3.41c-.84-2.71-1-5.82-3.85-7.52a1.85,1.85,0,0,1-.55-.85c-1.14-2.38-2.23-4.79-3.4-7.16-.42-.83-.55-2.11-2.08-1.72-.2,0-.58-.32-.75-.57-1.06-1.54-2.1-3.1-3.1-4.67a96.57,96.57,0,0,0-15.69-18.72,198,198,0,0,1-17.8-18.94c-.06-.08-.29,0-.55,0,.25.74.5,1.45.93,2.69-1.58-1.08-2.7-2-2.69-3.26a3.26,3.26,0,0,0-1.47-2.75c-1.56-1.34-3.15-2.63-4.7-4a17.4,17.4,0,0,1-1.31-1.35l8.76-3.42c2.85-1.11,6-1.62,8.36-3.79l-4.63,1.55-.24-.66a118.17,118.17,0,0,1,17-7.15c.12.89-1.13,1.83.41,2.2,1.68-.73,1.93-3.17,4.2-3.63-.45.87-.77,1.49-1.1,2.1a5.57,5.57,0,0,0,2.44-1.39,27.56,27.56,0,0,1,10-5.49,84.77,84.77,0,0,0,14.7-6c4.07-2.17,8.12-4.37,12.25-6.42,5.28-2.62,10.63-5.09,15.93-7.65,4.3-2.08,8.5-4.42,12.89-6.29,8.56-3.64,16.74-8.16,25.65-11,3.72-1.2,7.15-3.24,10.77-4.74,6.08-2.52,12.21-4.91,18.31-7.37q4.51-1.81,9-3.72c.93-.39,2-.7,2.16-2a11,11,0,0,0,3.22-.3c6-2.39,12-5,18-7.35,5.45-2.13,10.56-5.06,16.5-6,4.79-.79,9.45-2.35,14.15-3.62,7.58-2,15.16-4.15,22.74-6.21,1.56-.42,3.16-.72,4.72-1.16.37-.1.66-.5,1-.76-3.35.21-6.54.7-9.73,1.21a5,5,0,0,0-1,.33c-1.88.75-3.72,1.65-5.65,2.23-5.32,1.58-10.64,3.19-16,4.49-4.53,1.1-8.89,3-13.67,3.07a4.41,4.41,0,0,0-1.46.45c-3.39,1.42-6.77,2.83-10.15,4.27q-10.6,4.52-21.2,9a7.86,7.86,0,0,1-1.47.34,13.84,13.84,0,0,1-1.55.86c-4,1.59-8.1,3.18-12.17,4.71A225.71,225.71,0,0,0,540.44,51c-2.34,1.18-4.94,1.85-7.4,2.81-2.86,1.11-5.76,2.14-8.54,3.44-8.27,3.87-16.41,8-24.75,11.75C490,73.31,480.5,78.16,471.1,83.2a91.47,91.47,0,0,1-8.81,4.1c-5.06,2-10.22,3.84-15.3,5.82-7.47,2.92-15,5.77-22.35,8.91-3,1.29-6.12,2.59-8.7,4.79a7.3,7.3,0,0,1-2.1.86,1.59,1.59,0,0,1,.56-1.37q5.67-4.17,11.37-8.28a3.11,3.11,0,0,1,1.58-.75c2.31,0,3.45-1.63,4.79-3,.76-.79,1.43-1.69,2.25-2.42a2.63,2.63,0,0,1,1.75-.78c.41.06.72.9,1.19,1.56l1.47-1.45A14.29,14.29,0,0,0,444,88.29c-2.07.38-3.56,1.77-5.18,2.92l-.62-.5a10,10,0,0,1,1.6-1.64q6.38-4,12.82-8a8.32,8.32,0,0,1,1.82-.58c-.67,1.41-1.19,2.49-1.72,3.58.73,0,1.22-.16,1.36-.48.77-1.87,2.38-2.87,3.91-3.95s2.88-1.85,4.24-2.87a116,116,0,0,1,14.41-8.72c.3-.16.67-.4.95-.34.91.19,1.38-.3,1.93-.89a5.75,5.75,0,0,1,1.67-1.16c5-2.51,10.29-4.48,15.25-7.11.45-.23,1-.26,1.47-.45a15.47,15.47,0,0,0,1.85-.85c1.33-.75,2.59-1.64,4-2.29,4.31-2.08,8.66-4.07,13-6.09,1.22-.57,2.38-1.21,3.9-.83.6.16,1.42-.39,2.1-.72,2.45-1.2,4.85-2.51,7.33-3.66,5.73-2.65,11.7-4.75,17.24-7.83a16.69,16.69,0,0,1,6.19-2.35c2.51-.23,4.53-1.34,6.68-2.29.85-.38,1.62-1,2.5-1.28,4.25-1.54,8.48-3.13,12.79-4.49,4.72-1.49,9.52-2.75,14.28-4.11,1.64-.47,3.33-.81,4.91-1.43a90.23,90.23,0,0,1,13.84-4.61c.92-.2,1.79-.59,2.69-.86q9.3-2.82,18.59-5.64a7.54,7.54,0,0,0,1.13-.58A28.05,28.05,0,0,1,635.5,6c4.11-1.12,8.3-2,12.45-3a7,7,0,0,0,4.48-3,8,8,0,0,0-1.74,0c-4,1-7.92,2.13-11.89,3.17-3.54.93-7.09,1.86-10.67,2.69-2.23.52-4.53.76-6.76,1.3s-4.24,1.33-6.4,1.87c-9.7,2.43-19.42,4.77-29.12,7.21a51.63,51.63,0,0,0-8.34,2.47c-6.46,2.84-12.61,6.38-19.36,8.62-3.23,1.06-6.31,2.59-9.5,3.79-5.92,2.21-11.89,4.3-17.81,6.51-9.52,3.55-19.24,6.59-28.44,11-3,1.42-6.12,2.93-8.5,5.13a40.6,40.6,0,0,1-7.65,5.4,44.7,44.7,0,0,1-4.12,2c-1,.46-2.1.72-3.07,1.22-5.22,2.72-10.41,5.5-15.62,8.23-2.42,1.26-5,2.3-7.29,3.7-3,1.81-5.79,4-8.74,5.84a88.65,88.65,0,0,1-9.85,6,113.31,113.31,0,0,0-12.78,7.53c-4,2.58-7.8,5.53-11.68,8.34-1.66,1.19-3.38,2.32-4.14,4.4-.16.45-.68.76-1,1.15-2.34,2.81-5.5,4.68-8.56,6.42-6.37,3.63-13,6.75-19.59,10.08-.45.23-1,.36-1.42.57-2.34,1-4.66,2.12-7,3.16-2.1.95-4.17,2-6.32,2.78-2.63,1-5.35,1.77-8,2.75C349.7,136,342.43,139,335,141.55c-7,2.35-14,4.43-20.46,8a6,6,0,0,1-1.29.37l-.19-.33c.53-.6,1.07-1.19,1.61-1.78a1.72,1.72,0,0,0-1.48.13,18.43,18.43,0,0,0-3.35,2.77c-1.77,2.16-4.36,3-6.59,4.32a1.53,1.53,0,0,1-1.23.14c-1.52-.67-2.49.25-3.34,1.19-2.29,2.51-4.45,5.14-6.76,7.63-1.38,1.49-3.05,2.7-4.38,4.22-2.71,3.07-5.3,6.26-7.92,9.42-1.24,1.5-2.59,3-2.38,5.41a4.84,4.84,0,0,0-4.55,2c-.24.28-.71.36-1.07.53a4.66,4.66,0,0,0-1.5.73,57.81,57.81,0,0,0-3.72,4.56c-6.78,9.44-13.49,18.92-20.27,28.35a144.13,144.13,0,0,0-13.83,23.36c-.94,2-2.08,3.92-3.22,5.83-3.09,5.22-6.27,10.38-9.32,15.63-3.56,6.14-7,12.36-10.52,18.5-3.29,5.69-6.93,11.2-10,17-6,11.42-12.49,22.58-17.4,34.53-2.7,6.56-5.19,13.2-7.81,19.79a11.91,11.91,0,0,1-1.7,3.4,11.09,11.09,0,0,0-2.5,5.79c-.33,2.2-.74,4.39-1,6.6-.36,3.65-.54,7.32-.91,11-.21,2.11.77,3.56,2.22,4.88a4.38,4.38,0,0,1,.84,6.09c-3.11,4.6-6.31,9.15-9.49,13.7-3,4.33-6.48,8.39-8.8,13.21a22.2,22.2,0,0,1-2.15,3.18q-2.66,3.75-5.35,7.48c-2.16,3-4.46,5.83-6.47,8.89-4.05,6.14-7.8,12.47-12.54,18.12-.6.72-1,1.6-1.53,2.37q-3.77,5.49-7.59,10.95c-.37.51-1,1.22-1.5,1.17-1.28-.16-1.65.67-2.14,1.46a31.3,31.3,0,0,0-2.4,3.93c-1.82,4.2-6.24,6.71-7.31,11.37a.6.6,0,0,1-.14.21c-.91,1.24-1.78,2.52-2.74,3.71A151.63,151.63,0,0,1,90.16,504c-5.43,5.42-10.08,11.61-15.85,16.73a42.1,42.1,0,0,1-4.37,3.55c-1.34.9-2.44,1.78-2.15,3.27a18.6,18.6,0,0,0-3.19,1.37c-3.1,2.13-6.1,4.39-9.16,6.57-1.95,1.39-3.91,2.76-5.91,4.06a2,2,0,0,1-1.62.3c-1.16-.62-1.71.07-2.41.74a55.27,55.27,0,0,1-10.73,8.28c-.51.3-1.18.6-1.39,1.08-.66,1.46-2,2-3.21,2.82-2.64,1.74-5.31,3.44-7.93,5.2a4.33,4.33,0,0,0-1.69,1.52c-.93,2.23-2.84,3.47-4.73,4.51a21.52,21.52,0,0,0-5.41,4.23,38.92,38.92,0,0,0-8,12.72,7.37,7.37,0,0,0-.17,5.83c.66-.66,1.25-1,1.47-1.54a13.71,13.71,0,0,0,.68-2.72,7.88,7.88,0,0,1,2.46-4.8l1,3.53c4,.2,10.74-4.46,11.71-8.27-3.56,2.7-6.25,6.38-11.23,6.84.29-2.3.54-4.25.82-6.46,1.82.85,2.61-.45,3.55-1.52,2.36-2.68,4.14-5.86,7.13-8,2.08-1.49,4-3.17,6.07-4.7,2.54-1.88,5.09-3.75,7.7-5.52,3.87-2.63,7.84-5.12,11.71-7.75,2.76-1.86,5.4-3.91,8.16-5.77,2-1.38,4.36-2.38,6.27-3.91A133.87,133.87,0,0,0,71,526.84c4.43-4.38,9.25-8.35,13.64-12.77a134.12,134.12,0,0,0,8.83-10.32c3.36-4.19,6.54-8.53,9.86-12.76,3.78-4.84,7.65-9.61,11.43-14.45,2.84-3.63,5.59-7.33,8.39-11,.92-1.22,1.91-2.4,2.77-3.66,1.69-2.47,3.2-5.07,5-7.47,4.86-6.59,9.8-13.12,14.74-19.66,1.13-1.49,2.43-2.86,3.54-4.37,3.33-4.54,6.65-9.08,9.87-13.69,2.92-4.2,6.21-8.17,8.21-13a5,5,0,0,1,1.19-1.61c1-.94,2-1.76,3-2.72,1.75-1.74,3.54-3.46,5.13-5.34s2.77-3.74,4.13-5.62l-.85-.71c-1.9,1.82-3,4.36-4.81,6.29s-3.63,4.18-5.43,6.28a66.92,66.92,0,0,1,3.84-8.56,7.19,7.19,0,0,1,.89-1.56,10.09,10.09,0,0,1,1.6-1.16c-.34-2.32-.11-2.77,1.61-2.62a71.39,71.39,0,0,1,7.88.88c4.7.91,9.36,2,14,3.12,2.41.57,4.79,1.3,7.16,2,.9.26,2.1.41,2.56,1,2.06,2.81,5.81,2.29,8.17,4.4,5.3,1.3,10,4,14.6,6.73.48.29,1.16.73,1.21,1.16.12,1.12.88,1.25,1.67,1.63a50,50,0,0,1,4.37,2.52c2,1.24,3.91,2.88,6.34,1l2,1.58a9,9,0,0,1,3.67-6.61c1-.83,2-1.69,3.2-2.66a35.69,35.69,0,0,1,5.52,7.56c2.17,4.21,4.46,8.36,6.37,12.72a5.35,5.35,0,0,1,.18,4.42,30.58,30.58,0,0,1-1.66,3.15c-.87,1.55-2.12,3-2.59,4.64-1.51,5.45-4.39,10.18-7.4,14.84-1.83,2.83-3.92,5.48-5.9,8.21,4.67-3.72,7.27-9,10.69-13.73a15.2,15.2,0,0,1-.62,2.76c-.34,1.23-1,2.48-.95,3.69a14.23,14.23,0,0,1-1.1,5.2c-.69,2.11-1.33,4.23-2,6.44l1.32-.56c-.54,5-1.06,9.94-1.58,14.83a2.16,2.16,0,0,0,.95-1.49c.6-4.92,1.33-9.82,1.66-14.76a23.73,23.73,0,0,1,1.45-6.7c.32-.86.8-1.92.55-2.68a4.77,4.77,0,0,1,.23-3c.82-3.05,1.65-6.11,2.54-9.14.36-1.23.9-2.42,1.36-3.62l.51.18-.3,1.42a36.54,36.54,0,0,0-1.17,12.68,35.8,35.8,0,0,0,.63,6.88c.94,4,2.25,7.87,3.41,11.79,1.31,4.42,2.86,8.79,3.88,13.27a114.12,114.12,0,0,1,2.75,22.33c.14,5,.37,9.91.55,14.86q.52,14.2,1,28.42c.07,1.71.07,3.43.25,5.12.54,5.09.76,10.22,2.1,15.21a3,3,0,0,1-.44,2.37c-1.11,1.26-1,2.62-1,4.09,0,3.83,0,7.68-.26,11.5-.57,7.28-3.25,14.12-4.81,21.2a12.16,12.16,0,0,1-2.29,4c-.92,1.3-2,2.46-3.2,3.85a21.07,21.07,0,0,1-3.28-1.1c-.71-.36-1.59-1.08-1.7-1.75-.53-3.19-2.84-5.93-2.3-9.37a2.2,2.2,0,0,0-.17-1c-.67-1.92-1.5-3.8-2-5.77-1-4-2.16-8.09-2.84-12.2-1.25-7.57-2.3-15.17-3.25-22.78-.38-3-1.84-5.45-3.2-8-1.22-2.26-3.39-2.94-5.6-3a15.83,15.83,0,0,0-7.9,1.81A55.76,55.76,0,0,0,219,562.93c-2.31,2.4-4.42,5-7.19,6.91a68.66,68.66,0,0,0-6.18,5c-2.54,2.27-4.86,4.8-7.46,7-3.45,2.92-7,5.78-10.65,8.41a92.64,92.64,0,0,0-15.92,15.11c-4.25,4.9-8.42,9.89-12.76,14.71-5.43,6-11,11.88-16.49,17.9-4.64,5.14-9.1,10.42-13.71,15.58-1.65,1.85-3.67,3.37-5.18,5.31a28.85,28.85,0,0,1-6.2,5.69c-1.49,1.06-3.33,1.87-3.49,4.11,0,.27-.39.55-.64.77-2.65,2.29-5.26,4.63-8,6.82-2.55,2-5.06,1.94-7.67-1.38-1.29-1.64-2.51-3.34-3.84-5.12-1,1.15-.3,2,.22,2.66a60.76,60.76,0,0,0,4.44,5.3c1.78,1.85,3.58,2.16,5.78.82A57.94,57.94,0,0,0,110.2,674c4.16-3.35,7-8.19,12.16-10.41a1,1,0,0,0,.21-.15,100.76,100.76,0,0,0,15.88-14.8c4.92-5.56,9.65-11.28,14.64-16.78,3.56-3.91,7.41-7.56,11.14-11.32,1.06-1.08,1.94-2.3,3.65-2.61.69-.13,1.25-1.09,1.79-1.73.75-.9,1.34-1.94,2.16-2.77,2.33-2.37,4.75-4.67,7.13-7s4.57-4.61,7-6.77c6.57-5.84,13.22-11.59,19.83-17.38,1-.91,2-1.88,3-2.81a79.77,79.77,0,0,1,6.62-6c5.85-4.32,11.19-9.21,16.62-14a64.91,64.91,0,0,1,5.65-4.41c2-1.38,3-1.11,4.05,1.08a20.84,20.84,0,0,1,1.79,4.77c1.61,7.34,3.47,14.64,3.82,22.2A17.9,17.9,0,0,0,248,586c2.29-.62,2-2.19,1.95-3.6-.07-2.47-.2-4.95-.26-7.42a5.44,5.44,0,0,1,.3-1.27,21.29,21.29,0,0,1,1.18,5.54,106.27,106.27,0,0,0,3.45,17.84,25.19,25.19,0,0,1,1.25,7.29c-.14,5.11,2.08,9.2,4.8,13.17.22.32.75.42,1.7.91l-1.59-3c2.13.5,4.07,1,6,1.39a5.47,5.47,0,0,0,3.93-.68,9.31,9.31,0,0,0,4.22-5.3c.91-2.57,1.67-5.2,2.45-7.82.16-.55.32-1.38,0-1.71-.87-1.06-.52-2.07-.24-3.15a109.41,109.41,0,0,0,3.29-19.92c.2-2.88.86-6.08-2.2-8.07a10.25,10.25,0,0,0,1.09-2.38,47.45,47.45,0,0,0,.66-6.6c0-2.29-.39-4.59-.45-6.89-.13-5-.1-10.06-.23-15.08-.15-5.89-.38-11.77-.61-17.65-.09-2.3-.28-4.59-.41-6.88-.25-4.34-.74-8.67-.17-13a3.36,3.36,0,0,0-.61-2.34,4.63,4.63,0,0,1-1-3.56c.61-7.79-.85-15.32-3.1-22.69-1.39-4.56-1.81-9.41-4.16-13.68a4.14,4.14,0,0,1-.24-1.25c-1.35-6.89-.75-13.82.23-20.63.62-4.37,1.27-9,4.85-12.4a4.75,4.75,0,0,0,1-1.79,56,56,0,0,1,7.29-12.61c2.14-3,4.46-5.84,6.68-8.75,3.16-4.14,6.3-8.3,9.48-12.42a15,15,0,0,1,1.82-1.73l.69.88,1.12-1.38-1.9.58c1.82-3.2,3.92-6.15,7.11-8.16a5.32,5.32,0,0,0,1.13-1c1.35-1.53,2.59-3.16,4-4.61,5.88-6,11.81-11.87,17.73-17.78.77-.77,1.62-1.47,2.36-2.14,3.26,1.12,3.24,1.1,5.48-1.57.83-1,1.76-1.86,2.67-2.77,3.15-3.12,5.88-6.66,9.49-9.33a45.16,45.16,0,0,0,4.11-3.47c2-1.83,2.07-2.87.68-5.08-.26-.41-.54-.8-.83-1.24,3.32-3.84,6.5-7.63,9.8-11.31,5.09-5.65,10.29-11.19,15.39-16.83s10.31-11.41,15.39-17.18c4.17-4.75,8.22-9.6,12.37-14.38,3.07-3.54,6.13-7.11,9.36-10.51,2.71-2.85,5.74-5.38,8.45-8.22a15.84,15.84,0,0,1,5.61-3.89c.48-.19.95-.4,1.43-.58,3.59-1.35,7.21-2.63,10.77-4.07s7.53,0,11.12-1.38a1.88,1.88,0,0,1,1.26,0c2.73,1.1,5.55.74,8.36.7a22,22,0,0,1,2.23.2,4.16,4.16,0,0,1-1.59,3.81,23.68,23.68,0,0,1-3.34,2.18l.19.35h2.42a2.5,2.5,0,0,1-2,2.74c-.94.29-2.13.47-2.73,2l4.12-1L460.73,257a17.76,17.76,0,0,0-8.3,2.3,11.23,11.23,0,0,0,2.84-.45c.91-.22,2-.82,2.7-.5a2.07,2.07,0,0,0,2.69-.64c.88.3,1.6.49,2.27.78,1,.42,2.1-.44,2.58-.19,1.81.93,3.32.09,4.91-.33,10-2.7,19.94-5.46,29.93-8.11,10.32-2.75,20.67-5.4,31-8.11,2.14-.56,4.26-1.3,6.43-1.72,7-1.38,14.09-2.63,21.13-4,4.36-.82,8.7-1.75,13.07-2.56,5-.92,10.1-1.63,15.1-2.69a37.27,37.27,0,0,0,7.76-2.6,17.32,17.32,0,0,1,5.56-1.71L598.61,228c1.37-.13,2.55-.16,3.69-.35a6.94,6.94,0,0,0,4.58-2.25,16.32,16.32,0,0,0,3.48.13c2-.34,3.94-.94,5.9-1.46a5.76,5.76,0,0,0,1.1-.57,3.77,3.77,0,0,0-1.82.1ZM174.75,532.05c-.63.8-1.25,1.6-1.88,2.39l.48.42,3.59-3.31-.34-.44-1.93,1q2.58-3.43,5.14-6.88c.3-.42.56-.86.84-1.29l-.44-.3a37.18,37.18,0,0,0-7.28,9Zm-75.52,3.58a3.2,3.2,0,0,0,2.72,2.5c-.61-1.17-1.16-2.41-2.79-2.43a25.27,25.27,0,0,1-.1-3.25c.2-2.16-1.1-4-3.7-4.81a4.25,4.25,0,0,0,0,1.44c.6,1.49,1.42,2.89,1,4.64-.08.35.5,1,.94,1.29A7.65,7.65,0,0,0,99.23,535.63ZM52,600.37c-1.05,1.11-2.08,2.25-3.16,3.32A21.17,21.17,0,0,1,45,607.31a34.07,34.07,0,0,0-8.29,6.77,51.54,51.54,0,0,1-16.59,12.67c-1.5.68-2.37,1.52-1.9,3.3-1.89.93-3.6,1.92-5.41,2.62-2.94,1.15-6,2.09-8.93,3.16-.87.32-2.13.21-2.26,2,.83-.14,1.53-.23,2.22-.39,1.16-.25,2.32-.5,3.46-.83,1-.28,1.93-.65,2.88-1,7-2.66,12.66-7.71,19.38-10.88A15.08,15.08,0,0,0,32,622.89a11.27,11.27,0,0,1,1.88-1.3,20.93,20.93,0,0,0,6.31-4.76,43.8,43.8,0,0,1,10-7.93c4-2.32,7.38-5.46,10.82-8.52,5.23-4.66,10.56-9.21,15.87-13.77a20.07,20.07,0,0,1,2.44-1.54c0,.57,0,.79-.09.88-3.46,3.52-6.73,7.28-10.5,10.45A36.4,36.4,0,0,0,64,601c-.88,1.05-1.63,2.2-2.54,3.21-3,3.37-6.12,6.67-9.15,10-1.3,1.46-2.4,3.1-4.44,3.71a3.39,3.39,0,0,0-1.34,1.15c-2.22,2.6-4.4,5.22-6.61,7.82-3,3.51-6,7-9,10.52a12.53,12.53,0,0,0-1.14,2l.06-.08a8.25,8.25,0,0,0-.8,1c-.94,1.6-1.76,3.29-2.8,4.82-2.34,3.45-4.84,6.79-7.2,10.24-3.38,4.95-4.61,10.58-4.89,16.47a8,8,0,0,0,.61,2c1.7-3.14.6-6.48,2.62-9,1.19.34,1.73,2,3.31,1.68-.11-.34-.12-.63-.27-.78-2.12-2.29-2-4.57-.49-7.23,1.3-2.24,3.21-4,4.43-6.22a87.63,87.63,0,0,1,8.34-12.55c3.8-4.71,7-9.9,12.36-13.17a1.8,1.8,0,0,0,.8-.93c.47-1.87,1.93-3,3.08-4.34a9.87,9.87,0,0,0,1.6-2c1.38-2.93,3.83-5,6-7.29,4.89-5.22,10.08-10.15,15.11-15.24,1.43-1.45,2.69-3.08,4.08-4.58,2.14-2.32,4.33-4.6,6.48-6.91,3-3.25,5.81-6.74,9.9-8.78a3.7,3.7,0,0,0,1.57-1.28,3.87,3.87,0,0,0,.75-2.51c-.26-1-.59-1.85.22-2.57a5.7,5.7,0,0,1,2.47-1.51,1.91,1.91,0,0,0,1.56-1.44c1.65-4,4.43-7.45,5.94-11.53a2.33,2.33,0,0,1,.38-.67c1.78-1.92,3.25-4,3.56-6.71a9.86,9.86,0,0,1,.93-2.38l-.53-.24-1.95,3.3-1.72-.49c-.29.7-.56,1.3-.78,1.92-1.6,4.5-3.05,9.07-5.54,13.2a8.57,8.57,0,0,1-4.41,4,15,15,0,0,0-3.76,2.1c-1.68,1.29-3.16,2.85-4.82,4.17-5.38,4.24-11.4,7.5-17.23,11-1,.61-2.17,1.12-2.34,2.52-1.78,0-3,1-4.19,2.14-3,2.79-6,5.55-8.85,8.4A10.93,10.93,0,0,0,52,600.37ZM18.89,674.54c1.14,1.69,2,3.26,3.61,4.3s3.43.75,5.11-.05q5.67-2.65,11.31-5.38a10,10,0,0,0,1.66-1.18l10-8a36.13,36.13,0,0,0,3.72-3.12c2-2.17,4-4.44,5.83-6.76A58.37,58.37,0,0,1,71,644,47.48,47.48,0,0,0,75,640.66c4.69-4.35,9.33-8.78,14-13.1,1.89-1.73,4.08-3.13,5.92-4.91,5.4-5.22,10.79-10.46,16-15.87,4.56-4.75,8.9-9.68,13.87-14,4.74-4.17,9.3-8.57,13.9-12.9,1.4-1.32,2.69-2.75,4-4.13a6.48,6.48,0,0,1-.94,2.68q-8.33,13.23-16.69,26.44c-.91,1.44-1.53,3.25-2.79,4.25-2.58,2-4,4.85-5.8,7.38-2.6,3.58-4.58,7.65-8.24,10.4a8.13,8.13,0,0,0-1.25,1.61,92.24,92.24,0,0,0-8.17,13c-2.33,4.46-4.91,8.79-7.2,13.28-1.79,3.52-2.29,7.41-2.88,11.29l2.9.19c.16-.24.34-.39.33-.52-.38-3.46.89-6.53,2.08-9.66a91.23,91.23,0,0,1,7.33-14.91,125.54,125.54,0,0,1,7.53-11.27c5.55-7.27,11.06-14.54,16.09-22.17,2.87-4.35,5.8-8.66,8.72-13,.33-.49.69-1.19,1.16-1.3,2.41-.61,3.51-2.61,4.75-4.4a111.72,111.72,0,0,0,7.6-12.44,116.11,116.11,0,0,0,6.46-15.86c1.51-4.48,1.79-9.35,4.25-13.53,0,0-.17-.2-.39-.44a38.35,38.35,0,0,0-5.39,8.64c-1.16,2.46-2.26,5-3.61,7.33-1.49,2.61-2.66,5.57-6,6.58a4.55,4.55,0,0,0-1.39,1.12c-6.47,6-13,11.84-19.38,17.93-9.25,8.86-18.3,17.93-27.55,26.79-4.93,4.73-10.13,9.18-15.19,13.77-5.31,4.82-10.72,9.54-15.87,14.52-3.19,3.07-6,6.55-9,9.84-3.61,4-7.54,7.63-11.5,11.27-5.6,5.17-12.5,7.95-19,11.5a1.63,1.63,0,0,1-2.41-.65A2.08,2.08,0,0,0,18.89,674.54Zm9.74-83.25-.44-.57c1.24-1.15,2.53-2.25,3.72-3.46s2.79-1.75,3.52-4c-.78.47-1.08.62-1.34.82A69.47,69.47,0,0,0,20.8,597.2a29.28,29.28,0,0,1-3.07,3.42c-2.63,2.56-5.49,4.91-7.94,7.62-1.59,1.78-4.14,3.28-3.34,6.42.06.24-.28.59-.45.89-1.7,2.92-3.42,5.84-5.12,8.76a2.06,2.06,0,0,0-.25.72c-.24,2-.45,4-.63,5.66,1.4,1.17,2.51,2,3.56,3,.52.47,1,1.14,1.7.48s.47-1.4-.18-2c-.37-.35-.91-.58-1.14-1a4.84,4.84,0,0,1-1-2.5,29.87,29.87,0,0,1,1.32-4.71l2.64.9c-.55-1.73-1.35-3.09-.39-4.65,1.42-2.33,2.62-4.79,4.62-6.73,1.17-1.12,2.13-2.45,3.19-3.68,2.79-3.21,5.58-6.43,8.41-9.61.37-.42,1-.58,1.51-.92a16.61,16.61,0,0,0,2.38-1.87c5-5.26,9.85-10.64,16-14.63a6.36,6.36,0,0,0,.92-.88c1.55-1.59,3.1-3.15,4.62-4.76,1-1.07,2.91-1.57,2.38-3.69-.07-.24.5-.64.77-1,.67-.77,1.33-1.56,2-2.32,2.48-2.79,4.61-5.89,7.84-8a31.45,31.45,0,0,0,3.94-3.65c1-.93,2-1.85,3-2.75A91.29,91.29,0,0,0,75.77,549c2.88-3.13,5.34-6.64,8-10s5.22-6.75,7.82-10.14c.48-.63.9-1.31,1.34-2-3.19,1.19-4.34,4.54-7.38,6.43.53-2.2.85-3.92,1.38-5.58s1.27-3.22,1.92-4.83l-.33-.21-2,1.8c-.13-1.42-.23-2.48-.31-3.39.85-.81,2.24.41,2.69-.91L84.82,518c0,1.36-.32,2.72.06,3.85a11.51,11.51,0,0,1-1.4,10c-.7,1.17-1.42,2.33-2.07,3.52-1.27,2.33-2.44,4.71-3.76,7a8.53,8.53,0,0,1-2,2.26c-2.18,1.79-4.49,3.4-6.64,5.22a77.7,77.7,0,0,1-12.67,8.65,40,40,0,0,0-7.9,5.61c-2.64,2.42-5.31,4.81-8,7.12-3.91,3.32-7.86,6.6-12.91,8.1a.94.94,0,0,0-.22.12q-8,4.85-16,9.72a6.25,6.25,0,0,0-1.48,1.38c-1.41,1.76-2.79,2.06-4.83,1-.41-.21-.86-.34-1.55-.6a2.31,2.31,0,0,0,2.3,2.26,8.14,8.14,0,0,0,3.52-.34c4.34-1.74,8.67-3.53,12.9-5.53,3.69-1.74,7.14-4,11-5.48a22.48,22.48,0,0,0,5.46-3.27c3-2.31,5.75-4.83,8.61-7.27,1.18-1,2.34-2,3.51-3.06l.35.39A227,227,0,0,1,28.63,591.29Zm461.77-428a2.25,2.25,0,0,0,.66.12,245.71,245.71,0,0,1,32-1.83c7.69,0,15.38,0,23.06.27s15.2.73,22.79,1.06c4.18.18,8.38.12,12.55.45,5.76.44,11.47-.16,17.19-.45-7-.22-13.94-.34-20.91-.57-7.52-.23-15-.55-22.55-.86-6.48-.26-13-.72-19.44-.77-7.94,0-15.89.22-23.83.41-4.35.1-8.71.3-13.07.52A27.42,27.42,0,0,0,490.4,163.31ZM222.33,543l.45.47a2.43,2.43,0,0,0,.67-.24c1.76-1.33,3.34-3.07,5.31-3.93s3.69-2.76,6.19-1.83c.05,0,.13-.11.21-.13A16.32,16.32,0,0,1,239,536.2c3.33-.15,4.95-2.78,7.16-4.55.19-.15.26-.44.39-.66.75-1.22,1.5-2.43,2.24-3.66.27-.46.5-1,.75-1.42a28.61,28.61,0,0,0-5,4.79,5.14,5.14,0,0,1-4.1,2.19,6.44,6.44,0,0,0-2.43.71c-1.41.58-2.74,1.39-4.18,1.86a25.16,25.16,0,0,0-9.25,5.31C223.83,541.49,223.09,542.26,222.33,543ZM474.69,181.43l0,.63c.8,0,1.61,0,2.41,0a82.78,82.78,0,0,1,19.37,1.74c9.23,1.78,18.43,3.74,27.64,5.61,1,.2,2,.28,2.93.41a2.1,2.1,0,0,0-1.46-1c-1.75-.37-3.53-.66-5.28-1-8.79-1.8-17.55-3.78-26.37-5.36a129.1,129.1,0,0,0-13.77-1.32A44.13,44.13,0,0,0,474.69,181.43ZM262,531.92l.48.21c.3-.49.59-1,.9-1.46,1.6-2.48,2.88-5.16,5.76-6.61a5.11,5.11,0,0,0,2.7-3l-4,2.63-.33-.41q1.82-3.4,3.61-6.81l-.6-.34c-1,1.73-1.94,3.48-3,5.17s-2.4,3.49-3.38,5.35C263.3,528.29,262.72,530.14,262,531.92Zm-126.68-1.56L118.6,540l.28.49A52.78,52.78,0,0,0,135.32,530.36Zm-38.25-8,0,.52a17.54,17.54,0,0,0,2.54-.67c2.9-1.25,11-6.87,11.89-8.52ZM27.39,663.79c4.59-2.56,9.43-9.94,9-13.54-1.49,2.67-2.61,5-4,7.15S29.05,661.67,27.39,663.79Zm85.34-119.12c.4,1.26.73,2.56,1.21,3.8s1.07,2.39,1.6,3.56l1.61-2.46c-.88-1.55-1.78-3.17-2.73-4.76C114,544.08,113.4,544,112.73,544.67Zm51.68-1.6c-2.16,2.39-4.32,4.78-6.53,7.21a4.15,4.15,0,0,0,3.06,2.16l-1.17-2.4C161.13,547.5,164,546.14,164.41,543.07Zm-55.69,113.4c2.62-.31,6.52-4.78,7.11-8.48Zm2.43-155.76c-2.42,1.14-6.64,6.62-7.17,9.37C107,507,108.67,503.54,111.15,500.71ZM30,657.89c-3.07,2.29-5.77,6.14-5.72,7.92A24.58,24.58,0,0,0,30,657.89ZM144.43,520.27c-2.86.57-8.66,5.16-9.41,7C138.32,524.83,141.38,522.55,144.43,520.27Zm297.4-414.78a4,4,0,0,0-2.84-1.76c1.23,1.31,1.25,2.79,1.23,4.41,0,1.09-.12,2.53,1.39,3.58a23.73,23.73,0,0,1-.31-3A31.31,31.31,0,0,1,441.83,105.49Zm-178.27,505c2.82-1.91,4.58-5.51,4-8.36ZM686.5,202.31a30.77,30.77,0,0,0-8.75,2.43A18.49,18.49,0,0,0,686.5,202.31ZM23.21,561.85c.24,1.57.51,2.77.6,4s0,2.57,0,3.85h.54a12.75,12.75,0,0,0,.1-7.14C24.4,562.29,23.86,562.19,23.21,561.85Zm147-25.1a15,15,0,0,0-6.91,4.59C165.15,541,167.09,539.75,170.23,536.75ZM546.11,65.39c-.45-.72.44-2.56-1.42-2.26.14,1.39.28,2.74.42,4.09,2.15-.22,3.19-.85,2.81-1.68-.07-.05-.14-.14-.21-.14C547.22,65.38,546.72,65.39,546.11,65.39ZM90.17,518l.54.67,5.22-4.35-.36-.46A13.57,13.57,0,0,0,90.17,518ZM23,609.53l-.69-.17-1.17,5C23.25,613.19,23.32,611.42,23,609.53ZM266.18,592.4c.17,2.36.31,4.5.47,6.8C267.93,596.51,267.75,593.84,266.18,592.4ZM566.08,54.91l-.22-.51-6.8,2.69C561.56,56.79,564,56.4,566.08,54.91ZM123.29,551.29l-.21-.55-4.58,1.5C121,553.58,122.12,552.38,123.29,551.29ZM461.78,96.56c2.47-.57,3.68-1.94,5-3.2A8,8,0,0,0,461.78,96.56ZM130.58,552.29c-1.94-.4-3.86-1-5.88-.37A8.44,8.44,0,0,0,130.58,552.29Zm40.29,1.62c.67.56.94,1,1.23,1a6.29,6.29,0,0,0,3.69-1l-.13-.52ZM608.41,78.34l3.91-2.67C609.56,75.92,609,76.26,608.41,78.34ZM470.26,131.62l-1.06-4a1.92,1.92,0,0,0-.43,2.8C469.12,130.88,469,132.35,470.26,131.62Zm17.18,91.08c-1.57-1.12-3.45-.85-5.2-1.11C483.82,222.66,485.64,222.62,487.44,222.7ZM165.07,553.89a5.82,5.82,0,0,0-3.15-3.32A3.91,3.91,0,0,0,165.07,553.89ZM494.56,118c2,.39,2.68-.11,3.94-2.47ZM99.08,665.29c2.71-.84,2.87-.94,3.66-2.4A4.37,4.37,0,0,0,99.08,665.29ZM501.92,115.76c1.36-1.19,1.36-1.19,1.06-2.83C501,114.21,501,114.21,501.92,115.76ZM105.79,643.17l.13.74,3.4-.4-.06-.55C108.09,642.74,106.88,642,105.79,643.17ZM592.6,71.52c-2.66,0-3.26.48-3.63,2.45ZM481.48,114.61c-2.53.24-3.12.67-3.62,2.63Zm133-39.43c.7-.73,1.17-1.32.47-2.07A.92.92,0,0,0,614,73C613.27,73.74,613.6,74.38,614.45,75.18Zm-63.77-9.39c-.07.32-.15.64-.23,1l3.31.73.18-.67Zm-45,127.1c2.16,1.37,2.88,1.52,4.74,1.23Zm-487.19,385,.63.53,2.25-2.61-.52-.45ZM488.64,122.66l.56.4,2.08-2.53-.42-.36A4,4,0,0,0,488.64,122.66ZM268.2,512l-.67.17.58,2.88C268.93,513.92,269.21,512.88,268.2,512ZM484.65,125.4c-2.18-.19-2.18-.19-3.36,1.54Zm65-50.82c-1.17-1.93-1.17-1.93-2.67-1.45ZM443.66,106.92l-.44.49,1.87,1.88C445.2,108,444.78,107.12,443.66,106.92ZM582.3,87.21l.31.52c1.5-.27,1.51-.27,2.37-2ZM481,89c-1.9.17-1.9.17-2.1,1.91Zm-10.23,3.89a2.7,2.7,0,0,0,2.9-1.39A2.75,2.75,0,0,0,470.74,92.86ZM603.32,78.74c-2.05.22-2.05.22-2.61,1.85Zm-8.81,4-.36-.55c-.84.24-1.8.32-1.76,1.83Zm-146.39,17.7c-1.55-.75-1.55-.75-2.73.52Zm48.71-.9c.46.68.67,1.7,2,1.62A1.83,1.83,0,0,0,496.83,99.52Zm57.35-22,.42-.52-1.84-1.46-.36.46Zm-68.65,34.62.37.55a2.42,2.42,0,0,0,1.82-2.06ZM586.8,85.25l.47.83,2-1.27-.34-.59Zm5.56-77.19h.54c.41-1.24.41-1.24-.39-2.58C592.44,6.62,592.4,7.34,592.36,8.06ZM454.57,98.22c-1.79.58-1.79.58-1.74,1.89Zm19.71,30.92.52.73,1.83-1.49-.37-.51ZM299.68,391.71l-.6-.36-1,2.47.52.24ZM582.09,49.91c-.64-.83-1.25-.86-2.25.11ZM558.22,70.2c1.3.94,1.3.94,2.75.3Zm6.58,2c1.06,1,1.73,1.14,2.54.42ZM487.5,94.31c.19-.12.28-.15.31-.22s0-.21,0-.23c-.62-.33-1.25-.64-1.87-1l-.22.51Zm-40,16.17L447,111l1.5,1.48.43-.43Zm14,15.72a1.44,1.44,0,0,0-2.13-1.08,5.82,5.82,0,0,0,1,.77A7.45,7.45,0,0,0,461.54,126.2ZM559.2,80.38l.43-.51-1.58-1.18-.33.41Zm-63.81,26.48.43.43,1.48-1.21a1.4,1.4,0,0,0-1.35.06C495.71,106.29,495.57,106.62,495.39,106.86ZM576.08,76l.16-.53c-.59-.27-1-1.12-2.29-.14ZM261.94,593.6l.22-.67-1.72-.45-.15.55Zm188-475.37-.43.65,1.61,1.05.37-.53Zm41.83-22.3-.36.51,1.45.72.21-.38Zm89-10.23H581l.21-2.11-.48,0Zm16.93-16.55.12.62,1.69-.42-.09-.46Zm-132.14,58.2c-.16,1.25.41,1.39,1.32,1.17Zm23.57-70.8-.13-.32-1.6.7.12.29ZM603.22,200.39a1.23,1.23,0,0,0-.11.37c0,.06.11.16.15.15.44-.08.87-.18,1.31-.27l-.12-.44ZM456.89,121.71c0-.24.08-.48.13-.72l-1.83-.11-.05.57Zm140.37-41,.33.53,1-.67-.22-.38Zm-17.13-2.25.27-.32-.91-.83-.31.36ZM584,74.92c-.2-.28-.29-.55-.44-.59a1.54,1.54,0,0,0-.68.11c.09.2.12.51.27.57S583.6,75,584,74.92Zm21.41-8.09.25.39,1.16-.72-.27-.42ZM574.05,52.71c.41-1,.54-1.29.62-1.58,0-.05-.33-.26-.37-.23a1.84,1.84,0,0,0-.59.66C573.64,51.74,573.83,52,574.05,52.71ZM609.4,199.47l.11.41,1.09-.35a2.67,2.67,0,0,0-.14-.35C610.1,199.26,609.75,199.37,609.4,199.47ZM446.26,116.88l.36-.45-1.17-.6-.21.36Zm6.5-1.37.22-.29-.88-.68-.23.3Zm17.64,4.8.4.37,1-1.25-.32-.26Zm13.17-29.78.2-.38-1.06-.55-.2.4Zm92.12-4.19-.51-.46-.33.46a4.21,4.21,0,0,0,.57.36S575.58,86.49,575.69,86.34Zm-10.62-4.46.11-.43-1.24-.28-.09.39Zm37.81-22.64,0-.33-.78-.14a1.93,1.93,0,0,0,0,.38C602.37,59.19,602.62,59.21,602.88,59.24Zm-3.56,142.52-.12-.46-1.14.33.1.4ZM98.11,661.31a2.37,2.37,0,0,0-.61-.28c-.07,0-.18.2-.27.31a2.82,2.82,0,0,0,.57.35S98,661.49,98.11,661.31ZM457.44,117.36l-.63.57.91.88.46-.4a1.67,1.67,0,0,0-.18-.61A2.23,2.23,0,0,0,457.44,117.36Z"/><path d="M600.41,226.49a17.57,17.57,0,0,0-5.57,1.72,37.27,37.27,0,0,1-7.76,2.6c-5,1.06-10.07,1.77-15.1,2.69-4.37.81-8.71,1.74-13.07,2.56-7,1.34-14.1,2.59-21.13,4-2.17.42-4.29,1.16-6.43,1.72-10.33,2.71-20.68,5.36-31,8.11-10,2.65-20,5.41-29.93,8.11-1.59.42-3.1,1.26-4.91.33-.48-.25-1.62.61-2.58.19-.67-.29-1.39-.48-2.27-.78a2.07,2.07,0,0,1-2.69.64c-.67-.32-1.79.28-2.7.5a11.23,11.23,0,0,1-2.84.45,17.76,17.76,0,0,1,8.3-2.3l2.11-3.46-4.12,1c.6-1.55,1.79-1.73,2.73-2a2.5,2.5,0,0,0,2-2.74H461l-.19-.35a23.68,23.68,0,0,0,3.34-2.18,4.16,4.16,0,0,0,1.59-3.81,22,22,0,0,0-2.23-.2c-2.81,0-5.63.4-8.36-.7a1.88,1.88,0,0,0-1.26,0c-3.59,1.38-7.52-.08-11.12,1.38s-7.18,2.72-10.77,4.07c-.48.18-.95.39-1.43.58a15.84,15.84,0,0,0-5.61,3.89c-2.71,2.84-5.74,5.37-8.45,8.22-3.23,3.4-6.29,7-9.36,10.51-4.15,4.78-8.2,9.63-12.37,14.38-5.08,5.77-10.23,11.49-15.39,17.18s-10.3,11.18-15.39,16.83c-3.3,3.68-6.48,7.47-9.8,11.31.29.44.57.83.83,1.24,1.39,2.21,1.29,3.25-.68,5.08a45.16,45.16,0,0,1-4.11,3.47c-3.61,2.67-6.34,6.21-9.49,9.33-.91.91-1.84,1.79-2.67,2.77-2.24,2.67-2.22,2.69-5.48,1.57-.74.67-1.59,1.37-2.36,2.14-5.92,5.91-11.85,11.82-17.73,17.78-1.43,1.45-2.67,3.08-4,4.61a5.32,5.32,0,0,1-1.13,1c-3.19,2-5.29,5-7.11,8.16l.08-.08a15.64,15.64,0,0,0-1.81,1.73c-3.18,4.12-6.32,8.28-9.48,12.42-2.22,2.91-4.54,5.77-6.68,8.75a56,56,0,0,0-7.29,12.61,4.75,4.75,0,0,1-1,1.79c-3.58,3.38-4.23,8-4.85,12.4-1,6.81-1.58,13.74-.23,20.63a4.14,4.14,0,0,0,.24,1.25c2.35,4.27,2.77,9.12,4.16,13.68,2.25,7.37,3.71,14.9,3.1,22.69a4.63,4.63,0,0,0,1,3.56,3.36,3.36,0,0,1,.61,2.34c-.57,4.35-.08,8.68.17,13,.13,2.29.32,4.58.41,6.88.23,5.88.46,11.76.61,17.65.13,5,.1,10.05.23,15.08.06,2.3.47,4.6.45,6.89a47.45,47.45,0,0,1-.66,6.6,10.25,10.25,0,0,1-1.09,2.38c3.06,2,2.4,5.19,2.2,8.07a109.41,109.41,0,0,1-3.29,19.92c-.28,1.08-.63,2.09.24,3.15.28.33.12,1.16,0,1.71-.78,2.62-1.54,5.25-2.45,7.82a9.31,9.31,0,0,1-4.22,5.3,5.47,5.47,0,0,1-3.93.68c-2-.41-3.9-.89-6-1.39l1.59,3c-.95-.49-1.48-.59-1.7-.91-2.72-4-4.94-8.06-4.8-13.17a25.19,25.19,0,0,0-1.25-7.29,106.27,106.27,0,0,1-3.45-17.84,21.29,21.29,0,0,0-1.18-5.54,5.44,5.44,0,0,0-.3,1.27c.06,2.47.19,5,.26,7.42,0,1.41.34,3-1.95,3.6a17.9,17.9,0,0,1-.67-2.92c-.35-7.56-2.21-14.86-3.82-22.2a20.84,20.84,0,0,0-1.79-4.77c-1.08-2.19-2.1-2.46-4.05-1.08a64.91,64.91,0,0,0-5.65,4.41c-5.43,4.8-10.77,9.69-16.62,14a79.77,79.77,0,0,0-6.62,6c-1,.93-2,1.9-3,2.81-6.61,5.79-13.26,11.54-19.83,17.38-2.43,2.16-4.67,4.51-7,6.77s-4.8,4.62-7.13,7c-.82.83-1.41,1.87-2.16,2.77-.54.64-1.1,1.6-1.79,1.73-1.71.31-2.59,1.53-3.65,2.61-3.73,3.76-7.58,7.41-11.14,11.32-5,5.5-9.72,11.22-14.64,16.78a100.76,100.76,0,0,1-15.88,14.8,1,1,0,0,1-.21.15c-5.13,2.22-8,7.06-12.16,10.41a57.94,57.94,0,0,1-6.18,4.53c-2.2,1.34-4,1-5.78-.82a60.76,60.76,0,0,1-4.44-5.3c-.52-.66-1.17-1.51-.22-2.66,1.33,1.78,2.55,3.48,3.84,5.12,2.61,3.32,5.12,3.43,7.67,1.38,2.73-2.19,5.34-4.53,8-6.82.25-.22.62-.5.64-.77.16-2.24,2-3,3.49-4.11a28.85,28.85,0,0,0,6.2-5.69c1.51-1.94,3.53-3.46,5.18-5.31,4.61-5.16,9.07-10.44,13.71-15.58,5.44-6,11.06-11.87,16.49-17.9,4.34-4.82,8.51-9.81,12.76-14.71a92.64,92.64,0,0,1,15.92-15.11c3.68-2.63,7.2-5.49,10.65-8.41,2.6-2.21,4.92-4.74,7.46-7a68.66,68.66,0,0,1,6.18-5c2.77-2,4.88-4.51,7.19-6.91A55.76,55.76,0,0,1,232.75,552a15.83,15.83,0,0,1,7.9-1.81c2.21.06,4.38.74,5.6,3,1.36,2.55,2.82,5,3.2,8,1,7.61,2,15.21,3.25,22.78.68,4.11,1.79,8.16,2.84,12.2.51,2,1.34,3.85,2,5.77a2.2,2.2,0,0,1,.17,1c-.54,3.44,1.77,6.18,2.3,9.37.11.67,1,1.39,1.7,1.75a21.07,21.07,0,0,0,3.28,1.1c1.17-1.39,2.28-2.55,3.2-3.85a12.16,12.16,0,0,0,2.29-4c1.56-7.08,4.24-13.92,4.81-21.2.3-3.82.24-7.67.26-11.5,0-1.47-.12-2.83,1-4.09a3,3,0,0,0,.44-2.37c-1.34-5-1.56-10.12-2.1-15.21-.18-1.69-.18-3.41-.25-5.12q-.51-14.21-1-28.42c-.18-5-.41-9.91-.55-14.86a114.12,114.12,0,0,0-2.75-22.33c-1-4.48-2.57-8.85-3.88-13.27-1.16-3.92-2.47-7.81-3.41-11.79a35.8,35.8,0,0,1-.63-6.88,36.54,36.54,0,0,1,1.17-12.68l.3-1.42-.51-.18c-.46,1.2-1,2.39-1.36,3.62-.89,3-1.72,6.09-2.54,9.14a4.77,4.77,0,0,0-.23,3c.25.76-.23,1.82-.55,2.68a23.73,23.73,0,0,0-1.45,6.7c-.33,4.94-1.06,9.84-1.66,14.76a2.16,2.16,0,0,1-.95,1.49c.52-4.89,1-9.79,1.58-14.83l-1.32.56c.7-2.21,1.34-4.33,2-6.44a14.23,14.23,0,0,0,1.1-5.2c-.06-1.21.61-2.46.95-3.69a15.2,15.2,0,0,0,.62-2.76c-3.42,4.7-6,10-10.69,13.73,2-2.73,4.07-5.38,5.9-8.21,3-4.66,5.89-9.39,7.4-14.84.47-1.65,1.72-3.09,2.59-4.64a30.58,30.58,0,0,0,1.66-3.15,5.35,5.35,0,0,0-.18-4.42c-1.91-4.36-4.2-8.51-6.37-12.72a35.69,35.69,0,0,0-5.52-7.56c-1.17,1-2.17,1.83-3.2,2.66a9,9,0,0,0-3.67,6.61l-2-1.58c-2.43,1.87-4.34.23-6.34-1a50,50,0,0,0-4.37-2.52c-.79-.38-1.55-.51-1.67-1.63,0-.43-.73-.87-1.21-1.16-4.63-2.74-9.3-5.43-14.6-6.73-2.36-2.11-6.11-1.59-8.17-4.4-.46-.63-1.66-.78-2.56-1-2.37-.71-4.75-1.44-7.16-2-4.65-1.11-9.31-2.21-14-3.12a71.39,71.39,0,0,0-7.88-.88c-1.72-.15-1.95.3-1.61,2.62a10.09,10.09,0,0,0-1.6,1.16,7.19,7.19,0,0,0-.89,1.56,66.92,66.92,0,0,0-3.84,8.56c1.8-2.1,3.55-4.25,5.43-6.28s2.91-4.47,4.81-6.29l.85.71c-1.36,1.88-2.63,3.85-4.13,5.62s-3.38,3.6-5.13,5.34c-1,1-2,1.78-3,2.72a5,5,0,0,0-1.19,1.61c-2,4.79-5.29,8.76-8.21,13-3.22,4.61-6.54,9.15-9.87,13.69-1.11,1.51-2.41,2.88-3.54,4.37-4.94,6.54-9.88,13.07-14.74,19.66-1.77,2.4-3.28,5-5,7.47-.86,1.26-1.85,2.44-2.77,3.66-2.8,3.66-5.55,7.36-8.39,11-3.78,4.84-7.65,9.61-11.43,14.45-3.32,4.23-6.5,8.57-9.86,12.76a134.12,134.12,0,0,1-8.83,10.32c-4.39,4.42-9.21,8.39-13.64,12.77a133.87,133.87,0,0,1-11.19,9.3c-1.91,1.53-4.23,2.53-6.27,3.91-2.76,1.86-5.4,3.91-8.16,5.77-3.87,2.63-7.84,5.12-11.71,7.75-2.61,1.77-5.16,3.64-7.7,5.52-2.05,1.53-4,3.21-6.07,4.7-3,2.14-4.77,5.32-7.13,8-.94,1.07-1.73,2.37-3.55,1.52-.28,2.21-.53,4.16-.82,6.46,5-.46,7.67-4.14,11.23-6.84-1,3.81-7.75,8.47-11.71,8.27l-1-3.53a7.88,7.88,0,0,0-2.46,4.8,13.71,13.71,0,0,1-.68,2.72c-.22.52-.81.88-1.47,1.54a7.37,7.37,0,0,1,.17-5.83,38.92,38.92,0,0,1,8-12.72A21.52,21.52,0,0,1,15.82,564c1.89-1,3.8-2.28,4.73-4.51a4.33,4.33,0,0,1,1.69-1.52c2.62-1.76,5.29-3.46,7.93-5.2,1.19-.78,2.55-1.36,3.21-2.82.21-.48.88-.78,1.39-1.08a55.27,55.27,0,0,0,10.73-8.28c.7-.67,1.25-1.36,2.41-.74a2,2,0,0,0,1.62-.3c2-1.3,4-2.67,5.91-4.06,3.06-2.18,6.06-4.44,9.16-6.57a18.6,18.6,0,0,1,3.19-1.37c-.29-1.49.81-2.37,2.15-3.27a42.1,42.1,0,0,0,4.37-3.55c5.77-5.12,10.42-11.31,15.85-16.73a151.63,151.63,0,0,0,10.72-12.52c1-1.19,1.83-2.47,2.74-3.71a.6.6,0,0,0,.14-.21c1.07-4.66,5.49-7.17,7.31-11.37a31.3,31.3,0,0,1,2.4-3.93c.49-.79.86-1.62,2.14-1.46.45.05,1.13-.66,1.5-1.17q3.84-5.44,7.59-10.95c.54-.77.93-1.65,1.53-2.37,4.74-5.65,8.49-12,12.54-18.12,2-3.06,4.31-5.93,6.47-8.89q2.7-3.74,5.35-7.48a22.2,22.2,0,0,0,2.15-3.18c2.32-4.82,5.77-8.88,8.8-13.21,3.18-4.55,6.38-9.1,9.49-13.7a4.38,4.38,0,0,0-.84-6.09c-1.45-1.32-2.43-2.77-2.22-4.88.37-3.65.55-7.32.91-11,.22-2.21.63-4.4,1-6.6a11.09,11.09,0,0,1,2.5-5.79A11.91,11.91,0,0,0,174,354c2.62-6.59,5.11-13.23,7.81-19.79,4.91-12,11.42-23.11,17.4-34.53,3.05-5.81,6.69-11.32,10-17,3.55-6.14,7-12.36,10.52-18.5,3.05-5.25,6.23-10.41,9.32-15.63,1.14-1.91,2.28-3.83,3.22-5.83a144.13,144.13,0,0,1,13.83-23.36c6.78-9.43,13.49-18.91,20.27-28.35a57.81,57.81,0,0,1,3.72-4.56,4.66,4.66,0,0,1,1.5-.73c.36-.17.83-.25,1.07-.53a4.84,4.84,0,0,1,4.55-2c-.21-2.44,1.14-3.91,2.38-5.41,2.62-3.16,5.21-6.35,7.92-9.42,1.33-1.52,3-2.73,4.38-4.22,2.31-2.49,4.47-5.12,6.76-7.63.85-.94,1.82-1.86,3.34-1.19a1.53,1.53,0,0,0,1.23-.14c2.23-1.37,4.82-2.16,6.59-4.32a18.43,18.43,0,0,1,3.35-2.77,1.72,1.72,0,0,1,1.48-.13c-.54.59-1.08,1.18-1.61,1.78l.19.33a6,6,0,0,0,1.29-.37c6.45-3.62,13.49-5.7,20.46-8,7.44-2.52,14.71-5.51,22.08-8.24,2.64-1,5.36-1.75,8-2.75,2.15-.82,4.22-1.83,6.32-2.78,2.34-1,4.66-2.11,7-3.16.46-.21,1-.34,1.42-.57,6.55-3.33,13.22-6.45,19.59-10.08,3.06-1.74,6.22-3.61,8.56-6.42.33-.39.85-.7,1-1.15.76-2.08,2.48-3.21,4.14-4.4,3.88-2.81,7.66-5.76,11.68-8.34a113.31,113.31,0,0,1,12.78-7.53,88.65,88.65,0,0,0,9.85-6c2.95-1.89,5.74-4,8.74-5.84,2.32-1.4,4.87-2.44,7.29-3.7,5.21-2.73,10.4-5.51,15.62-8.23,1-.5,2.06-.76,3.07-1.22a44.7,44.7,0,0,0,4.12-2,40.6,40.6,0,0,0,7.65-5.4c2.38-2.2,5.51-3.71,8.5-5.13,9.2-4.37,18.92-7.41,28.44-11,5.92-2.21,11.89-4.3,17.81-6.51,3.19-1.2,6.27-2.73,9.5-3.79,6.75-2.24,12.9-5.78,19.36-8.62a51.63,51.63,0,0,1,8.34-2.47c9.7-2.44,19.42-4.78,29.12-7.21,2.16-.54,4.24-1.36,6.4-1.87s4.53-.78,6.76-1.3c3.58-.83,7.13-1.76,10.67-2.69,4-1,7.92-2.13,11.89-3.17a8,8,0,0,1,1.74,0,7,7,0,0,1-4.48,3c-4.15,1-8.34,1.85-12.45,3a28.05,28.05,0,0,0-4.57,2.18,7.54,7.54,0,0,1-1.13.58q-9.28,2.84-18.59,5.64c-.9.27-1.77.66-2.69.86a90.23,90.23,0,0,0-13.84,4.61c-1.58.62-3.27,1-4.91,1.43-4.76,1.36-9.56,2.62-14.28,4.11-4.31,1.36-8.54,2.95-12.79,4.49-.88.31-1.65.9-2.5,1.28-2.15.95-4.17,2.06-6.68,2.29a16.69,16.69,0,0,0-6.19,2.35c-5.54,3.08-11.51,5.18-17.24,7.83-2.48,1.15-4.88,2.46-7.33,3.66-.68.33-1.5.88-2.1.72-1.52-.38-2.68.26-3.9.83-4.34,2-8.69,4-13,6.09-1.37.65-2.63,1.54-4,2.29a15.47,15.47,0,0,1-1.85.85c-.48.19-1,.22-1.47.45-5,2.63-10.24,4.6-15.25,7.11a5.75,5.75,0,0,0-1.67,1.16c-.55.59-1,1.08-1.93.89-.28-.06-.65.18-.95.34a116,116,0,0,0-14.41,8.72c-1.36,1-2.85,1.88-4.24,2.87s-3.14,2.08-3.91,3.95c-.14.32-.63.49-1.36.48.53-1.09,1.05-2.17,1.72-3.58a8.32,8.32,0,0,0-1.82.58q-6.44,3.94-12.82,8a10,10,0,0,0-1.6,1.64l.62.5-.07-.06-1.46,1.46c-.47-.66-.78-1.5-1.19-1.56a2.63,2.63,0,0,0-1.75.78c-.82.73-1.49,1.63-2.25,2.42-1.34,1.4-2.48,3.07-4.79,3a3.11,3.11,0,0,0-1.58.75q-5.7,4.11-11.37,8.28a1.59,1.59,0,0,0-.56,1.37,7.3,7.3,0,0,0,2.1-.86c2.58-2.2,5.68-3.5,8.7-4.79,7.38-3.14,14.88-6,22.35-8.91,5.08-2,10.24-3.79,15.3-5.82a91.47,91.47,0,0,0,8.81-4.1c9.4-5,18.89-9.89,28.65-14.22,8.34-3.71,16.48-7.88,24.75-11.75,2.78-1.3,5.68-2.33,8.54-3.44,2.46-1,5.06-1.63,7.4-2.81a225.71,225.71,0,0,1,22.45-9.37c4.07-1.53,8.12-3.12,12.17-4.71a13.84,13.84,0,0,0,1.55-.86h0c-.15,1.26-1.21,1.57-2.14,2q-4.47,1.91-9,3.72c-6.1,2.46-12.23,4.85-18.31,7.37-3.62,1.5-7,3.54-10.77,4.74-8.91,2.86-17.09,7.38-25.65,11-4.39,1.87-8.59,4.21-12.89,6.29-5.3,2.56-10.65,5-15.93,7.65-4.13,2-8.18,4.25-12.25,6.42a84.77,84.77,0,0,1-14.7,6,27.56,27.56,0,0,0-10,5.49,5.57,5.57,0,0,1-2.44,1.39c.33-.61.65-1.23,1.1-2.1-2.27.46-2.52,2.9-4.2,3.63-1.54-.37-.29-1.31-.41-2.2a118.17,118.17,0,0,0-17,7.15l.24.66,4.63-1.55c-2.4,2.17-5.51,2.68-8.36,3.79l-8.76,3.42A17.4,17.4,0,0,0,411,112.2c1.55,1.34,3.14,2.63,4.7,4a3.26,3.26,0,0,1,1.47,2.75c0,1.25,1.11,2.18,2.69,3.26-.43-1.24-.68-2-.93-2.69.26,0,.49-.07.55,0a198,198,0,0,0,17.8,18.94A96.57,96.57,0,0,1,453,157.16c1,1.57,2,3.13,3.1,4.67.17.25.55.61.75.57,1.53-.39,1.66.89,2.08,1.72,1.17,2.37,2.26,4.78,3.4,7.16a1.85,1.85,0,0,0,.55.85c2.88,1.7,3,4.81,3.85,7.52a12.68,12.68,0,0,0,1.52,3.41,19.69,19.69,0,0,1,3,8.11c.64,4.82,1.19,9.66,1.78,14.48.07.5.2,1,.36,1.79a27.6,27.6,0,0,0,3-.41q16.94-4.12,33.85-8.31c2.45-.61,5-.8,7.33-2,1.47-.77,3.51-.37,5.25-.7,4.53-.86,9-1.87,13.57-2.74a2.68,2.68,0,0,0,2-1.7h0a7.42,7.42,0,0,0,2.18.36c7.26-1,14.5-2.16,21.74-3.26a2.74,2.74,0,0,0,.48-.17h0a24.65,24.65,0,0,1-3.07,1c-4.19.82-8.51,1.18-12.55,2.46-2.73.86-5.48.93-8.18,1.51q-21.93,4.74-43.81,9.68c-5.17,1.16-10.27,2.61-15.39,4-.91.24-2,.33-2.15,1.64a24.07,24.07,0,0,0-3.05-.16c-1.36.1-1.87.7-1.61,2,.59,3,1.46,5.93,1.94,8.94a25.6,25.6,0,0,1,.14,6c-.13,1.9-.09,2.16,1.82,2.57l3.34.71c-2.1.82-4.39-.85-5.39,1.32l.21.81a23,23,0,0,0,2.35-.39c8.41-2.28,16.78-4.72,25.22-6.86q21.25-5.4,42.57-10.5c12.8-3.06,25.64-5.91,38.44-8.95,2.81-.66,5.52-1.73,8.43-2,.47,0,1,0,2,0-.75.58-1,.94-1.33,1-8.92,2-17.86,3.8-26.76,5.85-10.16,2.35-20.27,4.89-30.4,7.33-6.65,1.61-13.32,3.11-19.94,4.8-9,2.3-18,4.71-27,7.13q-5.94,1.6-11.81,3.44c-2.11.66-2.09.78-1.62,3.2,2.7,1,5.4,2,8.14,3a3.8,3.8,0,0,0,2,.07c4.55-1.16,9.09-2.37,13.63-3.58.14,0,.25-.2.71-.59l-3.82-1.22c3.18-1,5.91,1.69,9.11.83.93,1.8,2.29,2.19,4.25,1.62q6.38-1.89,12.86-3.44c5-1.19,10-2.13,15-3.3,11.39-2.68,22.77-5.45,34.16-8.16,18.53-4.41,37.11-8.63,55.59-13.25,9.44-2.36,19-4,28.44-6.51a27.41,27.41,0,0,0,3.54-1.4,8.21,8.21,0,0,1,5.38-.55c.18,1.17-.62,1.21-1.26,1.36-3.57.85-7.15,1.71-10.73,2.52-10.41,2.37-20.85,4.63-31.24,7.08-19.3,4.55-38.56,9.21-57.84,13.81-16.2,3.86-32.42,7.64-48.61,11.54-6.89,1.67-13.73,3.55-20.59,5.35a10.89,10.89,0,0,0-1.31.53,3,3,0,0,0,3.55.9c4-1.06,7.94-2.08,11.91-3.11,6.37-1.64,12.72-3.35,19.12-4.89,11.46-2.76,23-5.36,34.42-8.12,7.56-1.81,15.08-3.78,22.62-5.66a3.5,3.5,0,0,1,2.21.06c-1,.33-2.07.73-3.13,1q-17.13,4.38-34.27,8.73c-6.12,1.55-12.27,3-18.41,4.51q-15.93,3.9-31.85,7.85a7.1,7.1,0,0,0-1.84,1.12,13.23,13.23,0,0,0-3,.11c-3.95,1.09-7.85,2.29-11.76,3.48a8.48,8.48,0,0,0-1.58.94,3.9,3.9,0,0,0,3.42.5q6.3-1.65,12.59-3.32a5.65,5.65,0,0,0,1-.5l-.74-1.28c3,1.7,6,.48,8.91-.23,8.22-2,16.45-3.88,24.64-6,6.11-1.57,12.16-3.4,18.23-5.15a20.54,20.54,0,0,0,3.59-1.31c1.34-.67,2.52-1.41,4-.26.35.27,1.15.07,1.71,0,8.21-1.64,16.42-3.28,24.62-5,1.75-.36,3.45-1,5.19-1.38,7.05-1.73,14.09-3.47,21.15-5.15,4.07-1,8.14-2,12.26-2.7,5.88-1,11.8-1.8,17.72-2.6,3.3-.45,6.62-.78,9.94-1a27.25,27.25,0,0,0,7.2-1.59c3-1.08,6.08-1.66,9.13-2.47,1.49-.39,3-.81,4.45-1.21l0,0a5.22,5.22,0,0,1-4.35,2.23,18.88,18.88,0,0,0-5.26,1.48c0,.17.09.35.13.53,6.63-1,13.29-2,19.89-3.15,3.12-.57,6.08.11,9.1.41a1.19,1.19,0,0,1,.81.78c.16.84-.44,1.24-1.16,1.4-2,.42-4,.84-6,1.2-3.53.62-7.06,1.24-10.6,1.76-7.42,1.09-14.86,2.06-22.28,3.18-7.93,1.19-15.8,2.77-23.76,3.65-7.08.78-13.78,3.08-20.73,4.32a30.2,30.2,0,0,0-5,1.77ZM392.56,273.67c-1.49,2-3.69,3.68-3.64,7.1,2.53-2.26,4.66-4.17,5.16-7.7l-1.43.49c2.78-2.91,3.05-3.53,2.47-5.67A10.6,10.6,0,0,0,391.6,274Zm-5.58,5.8c.62-.8,1.24-1.6,1.85-2.41a4.52,4.52,0,0,0,1.22-3.95c-4.76,3.9-5.85,5-6.25,8.7l3.28-2.42c-1.66,1.83-3.33,3.64-5,5.5-.58.65-1.39,1.27-.9,2.67,1.88-1.6,3.67-3,5.31-4.58a5.08,5.08,0,0,0,1.44-3.69ZM491,238.2l5.09-1.32.19.59-6,2.15c2.35.19,13.37-2.87,14.79-3.87-1.64-1-2-1.16-3.76-.76-2.74.63-5.48,1.27-8.19,2a10.28,10.28,0,0,0-2.11,1.22,3.89,3.89,0,0,0-3.39.5l.12.5ZM344.11,333.66l-.07-1.29c-1.14.86-2,1.47-2.81,2.13s-1.6,1.39-2.4,2.08c1.39-1.69,2.68-3.48,4.17-5.07q10.44-11.2,21-22.31c3.17-3.31,6.54-6.42,9.81-9.63-2.15,2.61-4.29,5.23-6.45,7.82-.67.81-1.4,1.57-2.11,2.36,2.28-.83,10.3-9.45,11.82-12.39l-3.35,2.3c.22-.62.26-1.4.67-1.84,2.5-2.63,5.13-5.15,7.64-7.78,1.61-1.69,3.1-3.5,4.65-5.26a1.37,1.37,0,0,0-1.27.33c-2.68,2.37-5.33,4.78-8.06,7.1-2.51,2.13-4.92,4.36-7.65,6.27-2.1,1.48-3.72,3.68-5.49,5.61q-12.94,14.16-25.84,28.36c-1.88,2.07-3.6,4.29-5.52,6.32-1.32,1.39-2.85,2.58-4.28,3.86l.05.05a21.62,21.62,0,0,1,1.44-2.06c2.09-2.33,4.23-4.62,6.35-6.93q17.88-19.57,35.75-39.15c1.49-1.63,2.77-3.45,4.27-5.07.44-.48,1.3-.57,2-.85l-2.79,3.29c3.22-1.78,3.59-2.19,3.8-3.87l-1.12.69c.68-1,1.29-2,2-2.86a11.46,11.46,0,0,0,2.64-5.81c-1.85,1.36-3.32,2.45-4.11,4.22-.31.69-.52,1.37-1.56,1.31-.37,0-.8.57-1.15.93-2.14,2.19-4.26,4.4-6.41,6.59a11.13,11.13,0,0,1-1.22.92,44.37,44.37,0,0,1,6-7,20.09,20.09,0,0,0,5.92-7.5l.2,1.2c2.75-2.05,3.83-3.4,4.72-5.78,1.57-4.22,3.19-8.43,4.73-12.66.81-2.2,1.5-4.43,2.23-6.6-1.17-.6-1.82-.43-2.23.42-.3.62-.59,1.24-.84,1.87-1.58,4.05-3.1,8.12-4.73,12.15-.95,2.34-2.09,4.61-3.14,6.91a6.67,6.67,0,0,1,.19-1c.81-2.49,2.06-4.85,2-7.6,0-.52.64-1.11,1.08-1.57,1.67-1.74,2-3.95,2.34-6.23a4.39,4.39,0,0,0-1.54,1.8c-2,4.33-3.92,8.68-5.9,13-.16.35-.58.57-.88.85l.06.06a14.23,14.23,0,0,1,2.14-6.22c1-1.69,1.66-3.53,2.48-5.31l-.45-.27c-.62.68-1.22,1.36-1.85,2-2.09,2.23-4.16,4.48-6.28,6.69-4.78,5-9.55,10-14.38,14.91-1.23,1.26-2.66,2.33-4,3.46.65-.74,1.3-1.49,1.94-2.24-1,.47-2.14.89-1.93,2.23-2.2,2.44-4.36,4.93-6.64,7.3-.47.49-1.49.42-2,.88-2.29,1.9-4.63,3.79-6.72,5.9-4.07,4.12-8,8.39-12,12.6-.41.44-.78.9-1.18,1.34l-2.47,2.74c-.17.93-.05,1.83-.44,2.26-2.59,2.81-5.3,5.52-8,8.28-.65.67-1.7,1.36-1.77,2.11-.14,1.53-1.18,2.2-2.08,3-2.06,1.92-4.16,3.8-6.27,5.68a90.69,90.69,0,0,0-14.9,16.69c-2,2.88-4.25,5.53-6.38,8.29-.79,1-1.91,1.91-2.28,3.06a10.15,10.15,0,0,1-3,4.07,64.1,64.1,0,0,1-6.92,6.65c-3,2.23-5.25,5.33-7.82,8.06l-9.65,10.26a19.62,19.62,0,0,0,2.15,3.77,47.73,47.73,0,0,1,5.41,7.4c.91,1.5,2,2.89,3.22,4.57.82-.93,1.51-1.66,2.12-2.44,5.77-7.31,11.5-14.65,17.3-21.92a33.94,33.94,0,0,1,5.18-5.7,55.63,55.63,0,0,0,6.47-5.89c3.19-3.44,6.42-6.83,9.64-10.23l-.05-.06-.9,2.16a20.73,20.73,0,0,0,3.95-3.44c2.2-2.3,4.38-4.62,6.57-6.93l-.37.87.48.32c1.42-1.56,2.81-3.13,4.26-4.67,3.14-3.35,6.33-6.66,9.47-10,2.32-2.49,4.6-5,6.9-7.53l.33,1c4.95-4,8.05-9.47,12.09-14.12a6.27,6.27,0,0,0-2.21,1.38C346.71,330.74,345.43,332.22,344.11,333.66Zm38.62-109.31a16.1,16.1,0,0,1-2.1-1.42c-3.23-3-6.45-6.08-9.61-9.2-1.45-1.43-2.55-3.29-4.16-4.48a111.31,111.31,0,0,0-10.06-6.57c-2.63-1.52-4.08-2.54-5.71-5.22a9.26,9.26,0,0,1,2,1.51c2.14,2.41,5.46,2.71,7.93,4.53,2.63-.4,4.45,1.3,6.4,2.57a67.09,67.09,0,0,1,11.54,10.08c2.77,2.9,5.83,5.51,7.85,9.06.78,1.38,1.74,2.65,2.65,4l1.2-.74,3,8.79c.47-1,.73-1.53,1.2-2.52a5.29,5.29,0,0,1,.35,1.33c-.25,2.3.61,4.34,1.39,6.42a14.75,14.75,0,0,1,1.23,4.42c.1,2.12,1.33,3.47,2.62,5.45a15.47,15.47,0,0,0,1.1-2.25c.38-1.31.6-2.66.95-4a7.67,7.67,0,0,1,2.29-3.93c-1.71,5.46-3.09,10.44-3,15.72a19.54,19.54,0,0,0,1.62-3.92c.86-2.51,2.06-4.95,2.49-7.52a5.71,5.71,0,0,1,2.55-4.11,3.16,3.16,0,0,0,1.75-2.87l-1.28-.77.22-.35c3.07.05,2.9-2.18,2.88-4.38.31,1.09.61,2.19,1,3.64,2.11-.35,4.27-.7,6.41-1.09.12,0,.17-.43.34-.92l-3.36.14a6.73,6.73,0,0,1,3.41-1.4,6.32,6.32,0,0,0,3.67-1.55,19.46,19.46,0,0,1,2.62-1.44l-.06-.06-3.35,3.31c2.28-.1,4-.13,5.81-.27a12.7,12.7,0,0,1,7,1.21,10.93,10.93,0,0,0,4.44,1c2.91.2,5.93-.57,8.77,1.16-4,.08-7.63,2.14-12.18,1.67l1.53-1.06C433,238,428,237.94,423,238a4.88,4.88,0,0,0-1.49.34c-2.07.75-4.15,1.5-6.2,2.33-1.18.47-2.73.81-3.36,1.72-2,2.94-4.59,5.6-5.48,9.18-1.06,4.3-2,8.65-2.91,13a20.17,20.17,0,0,0-.25,2.07l.52.2c.75-1.11,1.52-2.2,2.24-3.32a34.1,34.1,0,0,1,6-7.59,23.36,23.36,0,0,1,2.46-1.7c-1.22,2.42-3.85,3.53-4.95,6.24.53-.07.73,0,.84-.12,2.84-2.32,5.64-4.69,8.52-7,1.15-.91,1-1.74-.1-2.76l6-3.45-.15-.35-6.87,1.38c-2.42-2.24-4-2.28-6.11-.23-.78.75-1.59,1.47-2.39,2.2l-.42-.44,6.49-5.61c0-.05-.11.41-.33,1.29,10-1.82,19.66-4.57,29.68-4.58-7.82,1.42-15.74,2.32-23.35,4.81a13.29,13.29,0,0,0,4-.17c1.1-.19,2.15-.59,3.24-.77,7.33-1.23,14.66-2.41,22-3.65a17,17,0,0,0,5.92-2.35l-2.54-1c2.15-2.45,2.14-5.38,2.22-8.3,0-1.36.16-2.73.28-4.09a5.81,5.81,0,0,1,1-3.2c.76-1.08.16-3.12.16-4.75l-.4,0-.6,2c-.18-1-.4-2.12-.55-3.21a5.49,5.49,0,0,1-.09-2A3,3,0,0,0,455,210.7a12.69,12.69,0,0,0,.39-3.12c-.63-3.79-1.28-7.58-2.14-11.33-1.48-6.4-3-12.81-4.75-19.15-1.32-4.84-2.42-9.79-5.21-14.1a1.62,1.62,0,0,1-.17-1.2c.79-2.63-.4-4.65-1.91-6.59a29.61,29.61,0,0,1-4.84-8.68,13.64,13.64,0,0,0-2.19-4.59,56.49,56.49,0,0,0-5.64-5.16c-3.65-3.22-7.33-6.41-11-9.65-1.85-1.64-3.52-3.49-5.44-5s-3.58-2.7-3.22-5.57c.21-1.72-1.19-2.22-2.77-1.41-2.12,1.08-4.28,2.11-6.47,3-9.6,4-19.22,8-28.83,12.08-6.29,2.64-12.57,5.32-18.86,8l-.35-1.07c-2.67.89-5.27,1.7-7.82,2.63-1.43.52-2.75,1.37-4.2,1.85-3.47,1.15-7.07,2-10.47,3.3-6.21,2.4-12.31,5.07-18.44,7.66a7.65,7.65,0,0,0-1.91,1.29c-3.09,2.69-6.18,5.39-9.21,8.15a9,9,0,0,0-1.65,2.25q-5.15,9-10.23,18.07c-.53.94-1,1.92-1.63,3.19,4.46.21,8.28-1.9,12.43-1.17,3.94.69,8,.9,12,1.32l0,.49-3.58.21a2.62,2.62,0,0,0,1.85.84c1.71.05,3.42,0,5.13,0,2.22,0,4.51-.25,6.64.22,5.07,1.12,10.13,2.41,15.08,4a27.16,27.16,0,0,1,7.55,3.74A34.28,34.28,0,0,0,350,199a6.13,6.13,0,0,1,1.24,1.07c-1.94-.31-6.43-2-7.61-3-2.66-2.25-6-3.21-9-4.82a8.84,8.84,0,0,0-2.21-.55c-.66-.15-1.34-.23-2-.44-5.19-1.77-10.46-3.12-16-3A49,49,0,0,1,301,186.94c-3.08-.78-6.42-.57-9.65-.69-.45,0-.92.65-1.62,1.18.22,0,0,0-.11,0-2.7-.91-5.16-1.12-6.52,2.11,0,0-.15,0-.35,0,.35-.92.69-1.78,1.11-2.86-2.28-.11-4.23-.29-6.18-.27a3.45,3.45,0,0,0-1.73.86c-1.29,1-.39,2.1,0,3.24-2,.92-4.18,1.61-4.71,4.2l2.05-.62c-1.27,1.49-2.25,2.53-3.11,3.66s-2.05,2.3-2.32,3.61c-.34,1.7-2.24,1.71-2.66,3.23a19.41,19.41,0,0,1-1.81,3.58l-.58-.35c2.81-7.45,7.3-14,12-20.41l-.47-.33-2.65,2.59-.92-1.23a4.07,4.07,0,0,0-.66.64c-3.41,5.3-6.79,10.63-10.23,15.91-1.45,2.21-3.09,4.3-4.55,6.5-1.64,2.49-3.18,5.05-4.77,7.58-.45.73-.92,1.44-1.33,2.19-1.33,2.46-2.47,5-4,7.36a21.11,21.11,0,0,0-3.18,5.77,2.67,2.67,0,0,1-1.33,1.44c-2,.92-2.86,2.85-3.45,4.55a17.83,17.83,0,0,1-2.19,3.93c-1.4,2.15-2.49,4.45-4.23,6.42s-1.66,5.14-4.13,6.75c-.11.08-.09.32-.17.47-.77,1.51-1.47,3.05-2.33,4.5-3.73,6.22-7.63,12.34-11.24,18.62-3.91,6.82-7.55,13.79-11.34,20.68-2.47,4.49-5.22,8.84-7.46,13.44-3.66,7.52-7.12,15.16-10.46,22.83-1.67,3.82-3,7.81-4.3,11.77-1.56,4.7-3,9.45-4.43,14.19-1.35,4.39-3.49,8.6-3,13.38a13.85,13.85,0,0,0,.8,3.13,1,1,0,0,0,1.82.4,2.83,2.83,0,0,1,2.73-1c1.6.25,2.34-.51,2.84-1.89s1.13-2.57,1.7-3.85l.47.18-1.87,5.89c.68.32,1.05.53,1.44.68q11.33,4.47,22.65,8.93c1.67.66,3.23,1.78,5,2.05,4,.64,7.39,2.68,10.8,4.52,5.56,3,10.89,6.39,16.34,9.58a3.3,3.3,0,0,0,1.61.24c2.07,0,4.35-.89,5.91,1.37.06.09.32,0,.57.07,17.48-19.71,33.26-40.89,51-60.46s34.82-39.62,52.73-58.93c2.06,1.4,2.57,1.48,3.67.44,4.84-4.59,9.7-9.15,14.45-13.82,4.19-4.14,8.26-8.41,12.35-12.66s7.22-9,10.51-13.9l-1-.53c.41-1.49.82-2.95,1.33-4.82.25,1.19.41,1.91.6,2.82a3,3,0,0,0,1.3-3.48c-.13-.54-.35-1.46-.13-1.6,1.12-.74.48-1.45.15-2.21-.8-1.89-1.69-3.75-2.37-5.68a16.5,16.5,0,0,0-4.79-6.85l-1.89-1.71c.52-.39.89-.84.31-1.44-1.88-2-3.76-3.9-5.7-5.79-.26-.26-.82-.21-1.24-.3l-.31.44c.6.66,1.17,1.34,1.79,2C379.24,220.9,381,222.62,382.73,224.35Zm-101.33-41,3.74,1.56c3.51-5.92,7.28-11.45,10.17-18-2.12.86-2.37,3.09-4.22,3.53,1.37-3.56,4.85-5.6,7-9.19C294.21,162.7,281.81,179.37,281.4,183.34ZM267.73,422.17l.79.15c.55-.82,1.61-1.66,1.56-2.43-.13-1.93,1-3.23,1.8-4.66a63.17,63.17,0,0,1,4-6.22c1.25-1.71,2.75-3.25,4.14-4.86l2.42-2.89c-.58-.71,0-1.33.58-1.92,1.6-1.64,3.32-3.19,4.84-4.91,2-2.29,3.92-4.71,5.86-7.08a5,5,0,0,0,.45-.93,25.07,25.07,0,0,0-3.82,3.48c-2,2.05-4.15,4-6,6.12-2.14,2.42-4.1,5-6.09,7.56q-5.52,7-11,14.12a2,2,0,0,0-.43,1.37A28.83,28.83,0,0,0,267.73,422.17ZM386.38,274.45l.63.36c1-1,2.1-2,3.06-3a7.78,7.78,0,0,0,1.9-2.67,61.2,61.2,0,0,0,1.65-8c.18-1.28.16-2.48,1.59-3.08-.41-.92-.75-1.66-1.1-2.41l-.56-.11C391.12,261.81,388.93,268.2,386.38,274.45Zm-189,114.28.17-.51-17.31-6.6-.6,2.39C185.62,385.59,191.3,387.87,197.36,388.73ZM474.23,241.54l7.38-2.35,0-.62a37.35,37.35,0,0,0-6.75-2.21C474.63,238.11,474.46,239.58,474.23,241.54ZM496.68,53.23a41.42,41.42,0,0,0,13.09-6.4A47.51,47.51,0,0,0,496.68,53.23ZM481.79,243.59c4.1,2,7.1-.15,10.53-.92a2.24,2.24,0,0,0-2.85-1.1C487.08,242.17,484.72,242.82,481.79,243.59Zm-5.16-1.7c4.19,1.61,4.84,1.4,8.43-2.56Zm-2.76,4.38c3.25,1.74,5.67.34,8.67-.82A9.52,9.52,0,0,0,473.87,246.27ZM305.58,341.54l.42.43c1.31-1.29,2.61-2.6,3.94-3.86,1.59-1.52,3.23-3,4.81-4.52.19-.18.14-.61.32-1.53C311.61,335.53,308.59,338.54,305.58,341.54Zm91.95-85.11c.59-2,.06-6-1-7.43C395.28,250.86,395.7,254.07,397.53,256.43ZM355.41,320l-.38-.35-7,7.49.49.46Q352,323.75,355.41,320ZM370,210.43c1.65,3.77,2.94,4.51,5.32,3.31ZM174.37,382.85c.75,1.47.75,1.47,3.41.62a5.19,5.19,0,0,0,.27-1.62c0-.2-.76-.31-1.18-.47C176.84,383.27,175.05,381.75,174.37,382.85Zm210.8-94.92c-1.56,1.43-3.22,2.78-3.89,4.92A8.42,8.42,0,0,0,385.17,287.93ZM244.08,410.23a5.22,5.22,0,0,0-4.38-2.38C240.85,409.14,242,410.38,244.08,410.23ZM472.88,219l-.5.13.39,6.82.69-.06C473.27,223.6,473.07,221.3,472.88,219Zm-66-107.29a6.47,6.47,0,0,0-3.4,1.92C405.23,113.48,406.42,113.22,406.85,111.71Zm72.74,137.44c-1.37-.81-2.35-1.15-3.5-.05A2.65,2.65,0,0,0,479.59,249.15Zm-64.39-9.64c-2.64-.92-2.8-.87-3.42.72ZM368.85,209l.37-.43-2.4-1.8C366.92,208.25,368,208.53,368.85,209Zm-167.13,89.5-.41-.2c-.44.82-.88,1.65-1.31,2.48l.49.24ZM476.31,244c-2-.75-2-.75-2.49.5Zm-5.49,7.73c.72.12,1.38.16,1.58-.72,0-.19-.36-.66-.57-.67C471,250.32,470.7,250.87,470.82,251.76ZM351.37,326l.46.38,1.83-2.13-.48-.4Zm87.16-178.89c-.43,1-.26,1.75,1,1.92C439.18,148.39,438.86,147.75,438.53,147.11Zm-266.77,218c1-1,1-1,.6-2.06ZM395.55,263.48c1.24-.83,1.24-.83,1-2.08C396.14,262.22,395.84,262.85,395.55,263.48ZM169.76,380.06h-.4v1.5h.4ZM423.25,125l-.49.41c.43.53.85,1.07,1.27,1.61l.49-.46ZM396.46,271.84l.6.38.72-1.39-.53-.3Zm1.35-12.55.59-.08c-.09-.45-.18-.9-.26-1.36l-.43.07C397.74,258.38,397.78,258.83,397.81,259.29Zm15.46-154.23.28.25,1.21-1.23-.31-.29C414.05,104.21,413.66,104.63,413.27,105.06Zm40.22,63.45.73-.19c-.16-.48-.32-1-.47-1.45l-.53.14ZM279.49,182l.38.16c.2-.47.41-.94.62-1.42l-.34-.15Zm195.3,67.68c-.37.31-.62.42-.69.6s.27.47.33.45a1.43,1.43,0,0,0,.67-.45C475.16,250.23,474.91,249.94,474.79,249.71ZM355.61,322l-.32-.34-.72.94.26.22ZM393,245.32l-.32-.24L392,246l.29.21Zm2.15,31,.31.2.68-1-.31-.2Z"/><path d="M18.89,674.54a2.08,2.08,0,0,1,2.46.88,1.63,1.63,0,0,0,2.41.65c6.49-3.55,13.39-6.33,19-11.5,4-3.64,7.89-7.28,11.5-11.27,3-3.29,5.77-6.77,9-9.84,5.15-5,10.56-9.7,15.87-14.52,5.06-4.59,10.26-9,15.19-13.77,9.25-8.86,18.3-17.93,27.55-26.79,6.36-6.09,12.91-12,19.38-17.93a4.55,4.55,0,0,1,1.39-1.12c3.31-1,4.48-4,6-6.58,1.35-2.36,2.45-4.87,3.61-7.33a38.35,38.35,0,0,1,5.39-8.64c.22.24.41.4.39.44-2.46,4.18-2.74,9-4.25,13.53a116.11,116.11,0,0,1-6.46,15.86,111.72,111.72,0,0,1-7.6,12.44c-1.24,1.79-2.34,3.79-4.75,4.4-.47.11-.83.81-1.16,1.3-2.92,4.31-5.85,8.62-8.72,13-5,7.63-10.54,14.9-16.09,22.17a125.54,125.54,0,0,0-7.53,11.27,91.23,91.23,0,0,0-7.33,14.91c-1.19,3.13-2.46,6.2-2.08,9.66,0,.13-.17.28-.33.52l-2.9-.19c.59-3.88,1.09-7.77,2.88-11.29,2.29-4.49,4.87-8.82,7.2-13.28a92.24,92.24,0,0,1,8.17-13,8.13,8.13,0,0,1,1.25-1.61c3.66-2.75,5.64-6.82,8.24-10.4,1.84-2.53,3.22-5.35,5.8-7.38,1.26-1,1.88-2.81,2.79-4.25q8.36-13.22,16.69-26.44a6.48,6.48,0,0,0,.94-2.68c-1.34,1.38-2.63,2.81-4,4.13-4.6,4.33-9.16,8.73-13.9,12.9-5,4.35-9.31,9.28-13.87,14-5.2,5.41-10.59,10.65-16,15.87-1.84,1.78-4,3.18-5.92,4.91-4.72,4.32-9.36,8.75-14,13.1A47.48,47.48,0,0,1,71,644,58.37,58.37,0,0,0,60.1,654.33c-1.86,2.32-3.8,4.59-5.83,6.76a36.13,36.13,0,0,1-3.72,3.12l-10,8a10,10,0,0,1-1.66,1.18q-5.64,2.73-11.31,5.38c-1.68.8-3.37,1.19-5.11.05S20,676.23,18.89,674.54Zm118.88-85.87.59.38c1.79-2.78,3.77-5.44,4.92-8.64Zm12.83-27.49.52.43c1.07-.19,1.32-.91,1.22-2.52Z"/><path d="M66.44,587.53c.17-1.4,1.34-1.91,2.34-2.52,5.83-3.54,11.85-6.8,17.23-11,1.66-1.32,3.14-2.88,4.82-4.17a15,15,0,0,1,3.76-2.1,8.57,8.57,0,0,0,4.41-4c2.49-4.13,3.94-8.7,5.54-13.2.22-.62.49-1.22.78-1.92l1.72.49,1.95-3.3.53.24a9.86,9.86,0,0,0-.93,2.38c-.31,2.73-1.78,4.79-3.56,6.71a2.33,2.33,0,0,0-.38.67c-1.51,4.08-4.29,7.51-5.94,11.53a1.91,1.91,0,0,1-1.56,1.44,5.7,5.7,0,0,0-2.47,1.51c-.81.72-.48,1.58-.22,2.57a3.87,3.87,0,0,1-.75,2.51,3.7,3.7,0,0,1-1.57,1.28c-4.09,2-6.88,5.53-9.9,8.78-2.15,2.31-4.34,4.59-6.48,6.91-1.39,1.5-2.65,3.13-4.08,4.58-5,5.09-10.22,10-15.11,15.24-2.12,2.27-4.57,4.36-6,7.29a9.87,9.87,0,0,1-1.6,2c-1.15,1.36-2.61,2.47-3.08,4.34a1.8,1.8,0,0,1-.8.93c-5.32,3.27-8.56,8.46-12.36,13.17a87.63,87.63,0,0,0-8.34,12.55c-1.22,2.18-3.13,4-4.43,6.22-1.54,2.66-1.63,4.94.49,7.23.15.15.16.44.27.78-1.58.3-2.12-1.34-3.31-1.68-2,2.49-.92,5.83-2.62,9a8,8,0,0,1-.61-2c.28-5.89,1.51-11.52,4.89-16.47,2.36-3.45,4.86-6.79,7.2-10.24,1-1.53,1.86-3.22,2.8-4.82a8.25,8.25,0,0,1,.8-1c.67.4.67.4,1.34-.93l-1.4,1a12.53,12.53,0,0,1,1.14-2c3-3.53,6-7,9-10.52,2.21-2.6,4.39-5.22,6.61-7.82A3.39,3.39,0,0,1,47.91,618c2-.61,3.14-2.25,4.44-3.71,3-3.37,6.12-6.67,9.15-10,.91-1,1.66-2.16,2.54-3.21a36.4,36.4,0,0,1,4.65-4.64c3.77-3.17,7-6.93,10.5-10.45.08-.09,0-.31.09-.88a20.07,20.07,0,0,0-2.44,1.54c-5.31,4.56-10.64,9.11-15.87,13.77-3.44,3.06-6.78,6.2-10.82,8.52a43.8,43.8,0,0,0-10,7.93,20.93,20.93,0,0,1-6.31,4.76,11.27,11.27,0,0,0-1.88,1.3,15.08,15.08,0,0,1-2.44,1.85c-6.72,3.17-12.38,8.22-19.38,10.88-1,.36-1.9.73-2.88,1-1.14.33-2.3.58-3.46.83-.69.16-1.39.25-2.22.39.13-1.81,1.39-1.7,2.26-2,3-1.07,6-2,8.93-3.16,1.81-.7,3.52-1.69,5.41-2.62-.47-1.78.4-2.62,1.9-3.3a51.54,51.54,0,0,0,16.59-12.67A34.07,34.07,0,0,1,45,607.31a21.17,21.17,0,0,0,3.92-3.62C50,602.62,51,601.48,52,600.37l-.06-.08c.27.72.8,1,1.35.42,1.67-1.65,3.27-3.37,4.89-5.06l-.09.08,3.18-2.63-.09.07L69,586.69l-.33-.47-2.34,1.24Z"/><path d="M28.63,591.29a227,227,0,0,0,22.46-22.7l-.35-.39c-1.17,1-2.33,2-3.51,3.06-2.86,2.44-5.65,5-8.61,7.27a22.48,22.48,0,0,1-5.46,3.27c-3.83,1.52-7.28,3.74-11,5.48-4.23,2-8.56,3.79-12.9,5.53a8.14,8.14,0,0,1-3.52.34,2.31,2.31,0,0,1-2.3-2.26c.69.26,1.14.39,1.55.6,2,1.06,3.42.76,4.83-1a6.25,6.25,0,0,1,1.48-1.38q8-4.89,16-9.72a.94.94,0,0,1,.22-.12c5.05-1.5,9-4.78,12.91-8.1,2.72-2.31,5.39-4.7,8-7.12a40,40,0,0,1,7.9-5.61A77.7,77.7,0,0,0,69,549.79c2.15-1.82,4.46-3.43,6.64-5.22a8.53,8.53,0,0,0,2-2.26c1.32-2.29,2.49-4.67,3.76-7,.65-1.19,1.37-2.35,2.07-3.52a11.51,11.51,0,0,0,1.4-10c-.38-1.13-.06-2.49-.06-3.85l4.07,2.22c-.45,1.32-1.84.1-2.69.91.08.91.18,2,.31,3.39l2-1.8.33.21c-.65,1.61-1.39,3.19-1.92,4.83s-.85,3.38-1.38,5.58c3-1.89,4.19-5.24,7.38-6.43-.44.65-.86,1.33-1.34,2-2.6,3.39-5.19,6.77-7.82,10.14s-5.08,6.88-8,10a91.29,91.29,0,0,1-7.64,6.76c-1,.9-2,1.82-3,2.75a31.45,31.45,0,0,1-3.94,3.65c-3.23,2.1-5.36,5.2-7.84,8-.68.76-1.34,1.55-2,2.32-.27.33-.84.73-.77,1,.53,2.12-1.38,2.62-2.38,3.69-1.52,1.61-3.07,3.17-4.62,4.76a6.36,6.36,0,0,1-.92.88c-6.15,4-11,9.37-16,14.63a16.61,16.61,0,0,1-2.38,1.87c-.48.34-1.14.5-1.51.92-2.83,3.18-5.62,6.4-8.41,9.61-1.06,1.23-2,2.56-3.19,3.68-2,1.94-3.2,4.4-4.62,6.73-1,1.56-.16,2.92.39,4.65l-2.64-.9A29.87,29.87,0,0,0,3,628.65a4.84,4.84,0,0,0,1,2.5c.23.42.77.65,1.14,1,.65.61.87,1.36.18,2s-1.18,0-1.7-.48c-1.05-.94-2.16-1.82-3.56-3,.18-1.63.39-3.65.63-5.66a2.06,2.06,0,0,1,.25-.72c1.7-2.92,3.42-5.84,5.12-8.76.17-.3.51-.65.45-.89-.8-3.14,1.75-4.64,3.34-6.42,2.45-2.71,5.31-5.06,7.94-7.62a29.28,29.28,0,0,0,3.07-3.42,69.47,69.47,0,0,1,13.29-13.08c.26-.2.56-.35,1.34-.82-.73,2.21-2.42,2.84-3.52,4s-2.48,2.31-3.72,3.46Zm43.31-41.82c-1,.62-2.11,1-2.7,2.08l.47.46c.72-.87,1.45-1.73,2.18-2.6,1.19.06,1.81-.77,2.29-1.78Zm-4.62,4.1c-1.36.72-3,1-3.7,3.15C65.6,556.17,66.37,554.77,67.32,553.57Zm15.76-16.15.37.24,1.36-2-.43-.28Z"/><path d="M490.4,163.31a27.42,27.42,0,0,1,8.41-1.65c4.36-.22,8.72-.42,13.07-.52,7.94-.19,15.89-.46,23.83-.41,6.48.05,13,.51,19.44.77,7.51.31,15,.63,22.55.86,7,.23,13.94.35,20.91.57-5.72.29-11.43.89-17.19.45-4.17-.33-8.37-.27-12.55-.45-7.59-.33-15.19-.84-22.79-1.06s-15.37-.29-23.06-.27a245.71,245.71,0,0,0-32,1.83A2.25,2.25,0,0,1,490.4,163.31Z"/><path d="M576.61,36a7.86,7.86,0,0,0,1.47-.34q10.6-4.5,21.2-9c3.38-1.44,6.76-2.85,10.15-4.27a4.41,4.41,0,0,1,1.46-.45c4.78-.06,9.14-2,13.67-3.07,5.4-1.3,10.72-2.91,16-4.49,1.93-.58,3.77-1.48,5.65-2.23a5,5,0,0,1,1-.33c3.19-.51,6.38-1,9.73-1.21-.33.26-.62.66-1,.76-1.56.44-3.16.74-4.72,1.16-7.58,2.06-15.16,4.16-22.74,6.21-4.7,1.27-9.36,2.83-14.15,3.62-5.94,1-11.05,3.9-16.5,6-6,2.36-12,5-18,7.35a11.06,11.06,0,0,1-3.23.3Z"/><path d="M222.33,543c.76-.74,1.5-1.51,2.28-2.23a25.16,25.16,0,0,1,9.25-5.31c1.44-.47,2.77-1.28,4.18-1.86a6.44,6.44,0,0,1,2.43-.71,5.14,5.14,0,0,0,4.1-2.19,28.61,28.61,0,0,1,5-4.79c-.25.47-.48,1-.75,1.42-.74,1.23-1.49,2.44-2.24,3.66-.13.22-.2.51-.39.66-2.21,1.77-3.83,4.4-7.16,4.55a16.32,16.32,0,0,0-3.84,1.14c-.08,0-.16.15-.21.13-2.5-.93-4.27,1-6.19,1.83s-3.55,2.6-5.31,3.93a2.43,2.43,0,0,1-.67.24Z"/><path d="M474.69,181.43a44.13,44.13,0,0,1,5.49-.3A129.1,129.1,0,0,1,494,182.45c8.82,1.58,17.58,3.56,26.37,5.36,1.75.36,3.53.65,5.28,1a2.1,2.1,0,0,1,1.46,1c-1-.13-2-.21-2.93-.41-9.21-1.87-18.41-3.83-27.64-5.61a82.78,82.78,0,0,0-19.37-1.74c-.8,0-1.61,0-2.41,0Z"/><path d="M262,531.92c.72-1.78,1.3-3.63,2.19-5.32,1-1.86,2.28-3.55,3.38-5.35s2-3.44,3-5.17l.6.34q-1.8,3.41-3.61,6.81l.33.41,4-2.63a5.11,5.11,0,0,1-2.7,3c-2.88,1.45-4.16,4.13-5.76,6.61-.31.48-.6,1-.9,1.46Z"/><path d="M52,600.37a10.93,10.93,0,0,1,1.37-2.3c2.9-2.85,5.89-5.61,8.85-8.4,1.19-1.12,2.41-2.17,4.19-2.14l-.08-.07c-1,1-2,2-2.93,3-.77.86-1.48,1.77-2.22,2.66l.09-.07c-1.58.24-2.33,1.5-3.18,2.63l.09-.08L56,597.3l-4,3Z"/><path d="M135.32,530.36a52.78,52.78,0,0,1-16.44,10.09l-.28-.49Z"/><path d="M97.07,522.36l14.46-8.67c-.88,1.65-9,7.27-11.89,8.52a17.54,17.54,0,0,1-2.54.67Z"/><path d="M99.23,535.63A7.65,7.65,0,0,1,97.3,535c-.44-.26-1-.94-.94-1.29.45-1.75-.37-3.15-1-4.64a4.25,4.25,0,0,1,0-1.44c2.6.8,3.9,2.65,3.7,4.81a25.27,25.27,0,0,0,.1,3.25Z"/><path d="M27.39,663.79c1.66-2.12,3.44-4.16,4.93-6.39s2.55-4.48,4-7.15C36.82,653.85,32,661.23,27.39,663.79Z"/><path d="M112.73,544.67c.67-.67,1.26-.59,1.69.14,1,1.59,1.85,3.21,2.73,4.76L115.54,552c-.53-1.17-1.14-2.34-1.6-3.56S113.13,545.93,112.73,544.67Z"/><path d="M164.41,543.07c-.41,3.07-3.28,4.43-4.64,7l1.17,2.4a4.15,4.15,0,0,1-3.06-2.16C160.09,547.85,162.25,545.46,164.41,543.07Z"/><path d="M108.72,656.47l7.11-8.48C115.24,651.69,111.34,656.16,108.72,656.47Z"/><path d="M111.15,500.71c-2.48,2.83-4.11,6.31-7.17,9.37C104.51,507.33,108.73,501.85,111.15,500.71Z"/><path d="M174.76,532.05l-1.83.57a37.18,37.18,0,0,1,7.28-9l.44.3c-.28.43-.54.87-.84,1.29q-2.56,3.45-5.14,6.88Z"/><path d="M30,657.89a24.58,24.58,0,0,1-5.72,7.92C24.27,664,27,660.18,30,657.89Z"/><path d="M144.43,520.27c-3.05,2.28-6.11,4.56-9.41,7C135.77,525.43,141.57,520.84,144.43,520.27Z"/><path d="M441.83,105.49a31.31,31.31,0,0,0-.53,3.24,23.73,23.73,0,0,0,.31,3c-1.51-1-1.41-2.49-1.39-3.58,0-1.62,0-3.1-1.23-4.41A4,4,0,0,1,441.83,105.49Z"/><path d="M263.56,610.44l4-8.36C268.14,604.93,266.38,608.53,263.56,610.44Z"/><path d="M686.5,202.31a18.49,18.49,0,0,1-8.75,2.43A30.77,30.77,0,0,1,686.5,202.31Z"/><path d="M23.21,561.85c.65.34,1.19.44,1.26.68a12.75,12.75,0,0,1-.1,7.14h-.54c0-1.28.08-2.57,0-3.85S23.45,563.42,23.21,561.85Z"/><path d="M170.23,536.75c-3.14,3-5.08,4.25-6.91,4.59A15,15,0,0,1,170.23,536.75Z"/><path d="M546.11,65.39c.61,0,1.11,0,1.6,0,.07,0,.14.09.21.14.38.83-.66,1.46-2.81,1.68-.14-1.35-.28-2.7-.42-4.09C546.55,62.83,545.66,64.67,546.11,65.39Z"/><path d="M90.17,518a13.57,13.57,0,0,1,5.4-4.14l.36.46-5.22,4.35Z"/><path d="M606.87,225.34a6.86,6.86,0,0,1-4.57,2.26c-1.14.19-2.32.22-3.69.35l1.8-1.46-.06,0c2.37.61,4.44-.33,6.54-1.18Z"/><path d="M23,609.53c.36,1.89.29,3.66-1.86,4.86l1.17-5Z"/><path d="M266.18,592.4c1.57,1.44,1.75,4.11.47,6.8C266.49,596.9,266.35,594.76,266.18,592.4Z"/><path d="M566.08,54.91c-2.06,1.49-4.52,1.88-7,2.18l6.8-2.69Z"/><path d="M538.41,191.55a12.63,12.63,0,0,1-8.26-1.58l8.25,1.58Z"/><path d="M606.89,225.35l8.65-1.8a3.77,3.77,0,0,1,1.82-.1,5.76,5.76,0,0,1-1.1.57c-2,.52-3.91,1.12-5.9,1.46a16.44,16.44,0,0,1-3.49-.13Z"/><path d="M123.29,551.29c-1.17,1.09-2.32,2.29-4.79,1l4.58-1.5Z"/><path d="M461.78,96.56a8,8,0,0,1,5-3.2C465.46,94.62,464.25,96,461.78,96.56Z"/><path d="M130.58,552.29a8.44,8.44,0,0,1-5.88-.37C126.72,551.29,128.64,551.89,130.58,552.29Z"/><path d="M170.87,553.91l4.79-.55.13.52a6.29,6.29,0,0,1-3.69,1C171.81,554.89,171.54,554.47,170.87,553.91Z"/><path d="M608.41,78.34c.6-2.08,1.15-2.42,3.91-2.67Z"/><path d="M174.67,532.13l1.93-1,.34.44-3.59,3.31-.48-.42c.63-.79,1.25-1.59,1.88-2.39Z"/><path d="M470.26,131.62c-1.24.73-1.14-.74-1.49-1.2a1.92,1.92,0,0,1,.43-2.8Z"/><path d="M487.44,222.7c-1.8-.08-3.62,0-5.2-1.11C484,221.85,485.87,221.58,487.44,222.7Z"/><path d="M165.07,553.89a3.91,3.91,0,0,1-3.15-3.32A5.82,5.82,0,0,1,165.07,553.89Z"/><path d="M494.56,118l3.94-2.47C497.24,117.86,496.52,118.36,494.56,118Z"/><path d="M99.08,665.29a4.37,4.37,0,0,1,3.66-2.4C102,664.35,101.79,664.45,99.08,665.29Z"/><path d="M501.92,115.76c-.89-1.55-.89-1.55,1.06-2.83C503.28,114.57,503.28,114.57,501.92,115.76Z"/><path d="M105.79,643.17c1.09-1.14,2.3-.43,3.47-.21l.06.55-3.4.4Z"/><path d="M592.6,71.52,589,74C589.34,72,589.94,71.55,592.6,71.52Z"/><path d="M481.48,114.61l-3.62,2.63C478.36,115.28,479,114.85,481.48,114.61Z"/><path d="M614.45,75.18c-.85-.8-1.18-1.44-.45-2.14a.92.92,0,0,1,.92.07C615.62,73.86,615.15,74.45,614.45,75.18Z"/><path d="M550.68,65.79l3.26,1-.18.67-3.31-.73C550.53,66.43,550.61,66.11,550.68,65.79Z"/><path d="M438.86,91.21c1.62-1.15,3.11-2.54,5.18-2.92a14.12,14.12,0,0,1-5.24,2.86Z"/><path d="M505.67,192.89l4.74,1.23C508.55,194.41,507.83,194.26,505.67,192.89Z"/><path d="M18.48,577.92l2.36-2.53.52.45-2.25,2.61Z"/><path d="M488.64,122.66a4,4,0,0,1,2.22-2.49l.42.36-2.08,2.53Z"/><path d="M99.16,535.7c1.63,0,2.18,1.26,2.79,2.43a3.2,3.2,0,0,1-2.72-2.5Z"/><path d="M268.2,512c1,.86.73,1.9-.09,3.05l-.58-2.88Z"/><path d="M484.65,125.4l-3.36,1.54C482.47,125.21,482.47,125.21,484.65,125.4Z"/><path d="M549.6,74.58l-2.67-1.45C548.43,72.65,548.43,72.65,549.6,74.58Z"/><path d="M669.62,207l4.39-1c-1.27,1.38-2.85,1.16-4.43,1Z"/><path d="M443.66,106.92c1.12.2,1.54,1,1.43,2.37l-1.87-1.88Z"/><path d="M582.3,87.21,585,85.75c-.86,1.71-.87,1.71-2.37,2Z"/><path d="M481,89l-2.1,1.91C479.07,89.14,479.07,89.14,481,89Z"/><path d="M470.74,92.86a2.75,2.75,0,0,1,2.9-1.39A2.7,2.7,0,0,1,470.74,92.86Z"/><path d="M603.32,78.74l-2.61,1.85C601.27,79,601.27,79,603.32,78.74Z"/><path d="M594.51,82.72,592.39,84c0-1.51.92-1.59,1.76-1.83Z"/><path d="M448.12,100.42l-2.73.52C446.57,99.67,446.57,99.67,448.12,100.42Z"/><path d="M496.83,99.52a1.83,1.83,0,0,1,2,1.62C497.5,101.22,497.29,100.2,496.83,99.52Z"/><path d="M554.18,77.51,552.4,76l.36-.46L554.6,77Z"/><path d="M485.53,112.13l2.19-1.51a2.42,2.42,0,0,1-1.82,2.06Z"/><path d="M586.8,85.25l2.08-1,.34.59-2,1.27Z"/><path d="M454.57,98.22l-1.74,1.89C452.78,98.8,452.78,98.8,454.57,98.22Z"/><path d="M474.28,129.14l2-1.27.37.51-1.83,1.49Z"/><path d="M299.68,391.71l-1.08,2.35-.52-.24,1-2.47Z"/><path d="M582.09,49.91l-2.25.11C580.84,49.05,581.45,49.08,582.09,49.91Z"/><path d="M558.22,70.2l2.75.3C559.52,71.14,559.52,71.14,558.22,70.2Z"/><path d="M564.8,72.22l2.54.42C566.53,73.36,565.86,73.26,564.8,72.22Z"/><path d="M487.5,94.31l-1.79-.9.22-.51c.62.32,1.25.63,1.87,1,0,0,0,.17,0,.23S487.69,94.19,487.5,94.31Z"/><path d="M447.54,110.48l1.38,1.57-.43.43L447,111Z"/><path d="M461.54,126.2a7.45,7.45,0,0,1-1.17-.31,5.82,5.82,0,0,1-1-.77A1.44,1.44,0,0,1,461.54,126.2Z"/><path d="M559.2,80.38l-1.48-1.28.33-.41,1.58,1.18Z"/><path d="M495.39,106.86c.18-.24.32-.57.56-.72a1.4,1.4,0,0,1,1.35-.06l-1.48,1.21Z"/><path d="M576.08,76,574,75.34c1.28-1,1.7-.13,2.29.14Z"/><path d="M261.94,593.6l-1.65-.57.15-.55,1.72.45Z"/><path d="M562.81,188.48l4.33-.6a5.69,5.69,0,0,1-4.35.59Z"/><path d="M449.94,118.23l1.55,1.17-.37.53-1.61-1.05Z"/><path d="M491.77,95.93l1.3.85-.21.38-1.45-.72Z"/><path d="M580.72,85.7V83.57l.48,0L581,85.71Z"/><path d="M597.65,69.15l1.72-.26.09.46-1.69.42Z"/><path d="M465.51,127.35l1.32,1.17C465.92,128.74,465.35,128.6,465.51,127.35Z"/><path d="M489.08,56.55l-1.61.67-.12-.29,1.6-.7Z"/><path d="M603.22,200.39l1.23-.19.12.44c-.44.09-.87.19-1.31.27,0,0-.14-.09-.15-.15A1.23,1.23,0,0,1,603.22,200.39Z"/><path d="M456.89,121.71l-1.75-.26.05-.57L457,121C457,121.23,456.93,121.47,456.89,121.71Z"/><path d="M597.26,80.7l1.1-.52.22.38-1,.67Z"/><path d="M580.13,78.45l-1-.79.31-.36.91.83Z"/><path d="M584,74.92c-.4.06-.67.18-.85.09s-.18-.37-.27-.57a1.54,1.54,0,0,1,.68-.11C583.71,74.37,583.8,74.64,584,74.92Z"/><path d="M605.41,66.83l1.14-.75.27.42-1.16.72Z"/><path d="M574.05,52.71c-.22-.7-.41-1-.34-1.15a1.84,1.84,0,0,1,.59-.66s.38.18.37.23C574.59,51.42,574.46,51.7,574.05,52.71Z"/><path d="M609.4,199.47c.35-.1.7-.21,1.06-.29a2.67,2.67,0,0,1,.14.35l-1.09.35Z"/><path d="M300.25,388l1.9-.58L301,388.78l-.69-.88Z"/><path d="M446.26,116.88l-1-.69.21-.36,1.17.6Z"/><path d="M452.76,115.51l-.89-.67.23-.3.88.68Z"/><path d="M470.4,120.31l1.07-1.14.32.26-1,1.25Z"/><path d="M483.57,90.53,482.51,90l.2-.4,1.06.55Z"/><path d="M575.69,86.34c-.11.15-.24.37-.27.36a4.21,4.21,0,0,1-.57-.36l.33-.46Z"/><path d="M565.07,81.88l-1.22-.32.09-.39,1.24.28Z"/><path d="M602.88,59.24c-.26,0-.51-.05-.76-.09a1.93,1.93,0,0,1,0-.38l.78.14Z"/><path d="M599.32,201.76l-1.16.27-.1-.4,1.14-.33Z"/><path d="M98.11,661.31c-.14.18-.28.4-.31.38a2.82,2.82,0,0,1-.57-.35c.09-.11.2-.32.27-.31A2.37,2.37,0,0,1,98.11,661.31Z"/><path d="M457.44,117.36a2.23,2.23,0,0,1,.56.44,1.67,1.67,0,0,1,.18.61l-.46.4-.91-.88Z"/><path class="cls-1" d="M426.13,231.39a19.46,19.46,0,0,0-2.62,1.44,6.32,6.32,0,0,1-3.67,1.55,6.73,6.73,0,0,0-3.41,1.4l3.36-.14c-.17.49-.22.9-.34.92-2.14.39-4.3.74-6.41,1.09-.39-1.45-.69-2.55-1-3.64,0,2.2.19,4.43-2.88,4.38l-.22.35,1.28.77a3.16,3.16,0,0,1-1.75,2.87,5.71,5.71,0,0,0-2.55,4.11c-.43,2.57-1.63,5-2.49,7.52a19.54,19.54,0,0,1-1.62,3.92c-.09-5.28,1.29-10.26,3-15.72a7.67,7.67,0,0,0-2.29,3.93c-.35,1.33-.57,2.68-.95,4a15.47,15.47,0,0,1-1.1,2.25c-1.29-2-2.52-3.33-2.62-5.45a14.75,14.75,0,0,0-1.23-4.42c-.78-2.08-1.64-4.12-1.39-6.42a5.29,5.29,0,0,0-.35-1.33c-.47,1-.73,1.55-1.2,2.52l-3-8.79-1.2.74c-.91-1.37-1.87-2.64-2.65-4-2-3.55-5.08-6.16-7.85-9.06a67.09,67.09,0,0,0-11.54-10.08c-1.95-1.27-3.77-3-6.4-2.57-2.47-1.82-5.79-2.12-7.93-4.53a9.26,9.26,0,0,0-2-1.51c1.63,2.68,3.08,3.7,5.71,5.22a111.31,111.31,0,0,1,10.06,6.57c1.61,1.19,2.71,3.05,4.16,4.48,3.16,3.12,6.38,6.17,9.61,9.2a16.1,16.1,0,0,0,2.1,1.42l-.06,0,1.88,1.69a16.5,16.5,0,0,1,4.79,6.85c.68,1.93,1.57,3.79,2.37,5.68.33.76,1,1.47-.15,2.21-.22.14,0,1.06.13,1.6a3,3,0,0,1-1.3,3.48c-.19-.91-.35-1.63-.6-2.82-.51,1.87-.92,3.33-1.33,4.82l1,.53c-3.29,4.87-6.46,9.71-10.51,13.9s-8.16,8.52-12.35,12.66c-4.75,4.67-9.61,9.23-14.45,13.82-1.1,1-1.61,1-3.67-.44-17.91,19.31-35,39.39-52.73,58.93s-33.51,40.75-51,60.46c-.25,0-.51,0-.57-.07-1.56-2.26-3.84-1.35-5.91-1.37a3.3,3.3,0,0,1-1.61-.24c-5.45-3.19-10.78-6.6-16.34-9.58-3.41-1.84-6.8-3.88-10.8-4.52-1.72-.27-3.28-1.39-5-2.05q-11.32-4.48-22.65-8.93c-.39-.15-.76-.36-1.44-.68l1.87-5.89-.47-.18c-.57,1.28-1.21,2.54-1.7,3.85s-1.24,2.14-2.84,1.89a2.83,2.83,0,0,0-2.73,1,1,1,0,0,1-1.82-.4,13.85,13.85,0,0,1-.8-3.13c-.45-4.78,1.69-9,3-13.38,1.45-4.74,2.87-9.49,4.43-14.19,1.32-4,2.63-7.95,4.3-11.77,3.34-7.67,6.8-15.31,10.46-22.83,2.24-4.6,5-9,7.46-13.44,3.79-6.89,7.43-13.86,11.34-20.68,3.61-6.28,7.51-12.4,11.24-18.62.86-1.45,1.56-3,2.33-4.5.08-.15.06-.39.17-.47,2.47-1.61,2.4-4.79,4.13-6.75s2.83-4.27,4.23-6.42a17.83,17.83,0,0,0,2.19-3.93c.59-1.7,1.49-3.63,3.45-4.55a2.67,2.67,0,0,0,1.33-1.44,21.11,21.11,0,0,1,3.18-5.77c1.53-2.33,2.67-4.9,4-7.36.41-.75.88-1.46,1.33-2.19,1.59-2.53,3.13-5.09,4.77-7.58,1.46-2.2,3.1-4.29,4.55-6.5,3.44-5.28,6.82-10.61,10.23-15.91a4.07,4.07,0,0,1,.66-.64l.92,1.23,2.65-2.59.47.33c-4.69,6.43-9.18,13-12,20.41l.58.35a19.41,19.41,0,0,0,1.81-3.58c.42-1.52,2.32-1.53,2.66-3.23.27-1.31,1.45-2.46,2.32-3.61s1.84-2.17,3.11-3.66l-2.05.62c.53-2.59,2.67-3.28,4.71-4.2-.42-1.14-1.32-2.28,0-3.24a3.45,3.45,0,0,1,1.73-.86c1.95,0,3.9.16,6.18.27-.42,1.08-.76,1.94-1.11,2.86.2,0,.34,0,.35,0,1.36-3.23,3.82-3,6.52-2.11.15,0,.33,0,.11,0,.7-.53,1.17-1.2,1.62-1.18,3.23.12,6.57-.09,9.65.69a49,49,0,0,0,13.46,1.34c5.55-.15,10.82,1.2,16,3,.64.21,1.32.29,2,.44a8.84,8.84,0,0,1,2.21.55c3,1.61,6.33,2.57,9,4.82,1.18,1,5.67,2.72,7.61,3A6.13,6.13,0,0,0,350,199a34.28,34.28,0,0,1-6.89-3.84,27.16,27.16,0,0,0-7.55-3.74c-4.95-1.58-10-2.87-15.08-4-2.13-.47-4.42-.19-6.64-.22-1.71,0-3.42,0-5.13,0a2.62,2.62,0,0,1-1.85-.84l3.58-.21,0-.49c-4-.42-8-.63-12-1.32-4.15-.73-8,1.38-12.43,1.17.65-1.27,1.1-2.25,1.63-3.19q5.1-9,10.23-18.07A9,9,0,0,1,299.6,162c3-2.76,6.12-5.46,9.21-8.15a7.65,7.65,0,0,1,1.91-1.29c6.13-2.59,12.23-5.26,18.44-7.66,3.4-1.33,7-2.15,10.47-3.3,1.45-.48,2.77-1.33,4.2-1.85,2.55-.93,5.15-1.74,7.82-2.63l.35,1.07c6.29-2.67,12.57-5.35,18.86-8,9.61-4,19.23-8,28.83-12.08,2.19-.92,4.35-2,6.47-3,1.58-.81,3-.31,2.77,1.41-.36,2.87,1.38,4.09,3.22,5.57s3.59,3.4,5.44,5c3.62,3.24,7.3,6.43,11,9.65a56.49,56.49,0,0,1,5.64,5.16,13.64,13.64,0,0,1,2.19,4.59,29.61,29.61,0,0,0,4.84,8.68c1.51,1.94,2.7,4,1.91,6.59a1.62,1.62,0,0,0,.17,1.2c2.79,4.31,3.89,9.26,5.21,14.1,1.74,6.34,3.27,12.75,4.75,19.15.86,3.75,1.51,7.54,2.14,11.33a12.69,12.69,0,0,1-.39,3.12,3,3,0,0,1,1.08,3.45,5.49,5.49,0,0,0,.09,2c.15,1.09.37,2.17.55,3.21l.6-2,.4,0c0,1.63.6,3.67-.16,4.75a5.81,5.81,0,0,0-1,3.2c-.12,1.36-.24,2.73-.28,4.09-.08,2.92-.07,5.85-2.22,8.3l2.54,1a17,17,0,0,1-5.92,2.35c-7.32,1.24-14.65,2.42-22,3.65-1.09.18-2.14.58-3.24.77a13.29,13.29,0,0,1-4,.17c7.61-2.49,15.53-3.39,23.35-4.81-10,0-19.65,2.76-29.68,4.58.22-.88.34-1.34.33-1.29L409,249.69l.42.44c.8-.73,1.61-1.45,2.39-2.2,2.14-2.05,3.69-2,6.11.23l6.87-1.38.15.35-6,3.45c1.05,1,1.25,1.85.1,2.76-2.88,2.26-5.68,4.63-8.52,7-.11.08-.31,0-.84.12,1.1-2.71,3.73-3.82,4.95-6.24a23.36,23.36,0,0,0-2.46,1.7,34.1,34.1,0,0,0-6,7.59c-.72,1.12-1.49,2.21-2.24,3.32l-.52-.2a20.17,20.17,0,0,1,.25-2.07c.94-4.33,1.85-8.68,2.91-13,.89-3.58,3.47-6.24,5.48-9.18.63-.91,2.18-1.25,3.36-1.72,2-.83,4.13-1.58,6.2-2.33A4.88,4.88,0,0,1,423,238c5,0,10,0,15.09.38l-1.53,1.06c4.55.47,8.21-1.59,12.18-1.67-2.84-1.73-5.86-1-8.77-1.16a10.93,10.93,0,0,1-4.44-1,12.7,12.7,0,0,0-7-1.21c-1.76.14-3.53.17-5.81.27l3.35-3.31c2.11-.73,4.53-.83,5.57-3.43.25-.62,1.28-.93,1.95-1.38.58.07,1.29.44,1.47-.7l-1.42.74c-1.24.62-2.52,1.19-3.72,1.88A18.9,18.9,0,0,0,427.8,230C427.24,230.47,426.69,230.94,426.13,231.39ZM263,222.18l-1.28,1.15.39.31.82-1.53,1.2-1.14-.45-.31C263.43,221.16,263.2,221.67,263,222.18Zm7.94-14.73c1.7-1,1.7-1,2.36-3.18-.95,1.32-1.63,2.28-2.3,3.26s-1.19,1.85-1.78,2.78l.46.25C270.22,209.6,271.21,208.85,270.92,207.45Zm-41.25,162c-1.6,1.31-1.6,1.31-1.27,3.14.53-1.41.87-2.3,1.2-3.2l1.46-1.32C229.91,368,229.33,368.42,229.67,369.47ZM336.6,255.34c-1.61.4-1.9,1.85-2.35,3.17.78-1.07,1.55-2.14,2.31-3.24l1.12-2.28A1.85,1.85,0,0,0,336.6,255.34Zm-78.93-37c2.17-1.59,2.52-4.09,3.42-6.32-5.47,5.1-7.14,7.46-7,9.65l3.64-5.25.3.23c-.1.58-.21,1.16-.31,1.75-2.33,3.32-6.53,11.85-6.81,14.08a13,13,0,0,0,.84-1.25c1.62-3.1,3.28-6.18,4.8-9.32A23.85,23.85,0,0,0,257.67,218.36ZM233.81,398.85l.3-.45a6.51,6.51,0,0,0-1.14-1c-4.16-2.14-8.14-4.7-12.76-5.84-1.82-.45-3.65-.86-5.43-1.43-5.43-1.75-10.84-3.58-16.26-5.35-1-.32-2-.91-3.22-.26.35.32.49.56.7.63,5.82,1.91,11.59,4,17.49,5.66,6.19,1.71,12.33,3.4,17.89,6.71C232.17,398,233,398.41,233.81,398.85Zm-5.39-128.51c-1.18,2.39-2.41,4.76-3.54,7.18s-2.94,4.4-2.87,7.22C224.29,280,227.74,275.82,228.42,270.34Zm224.23-49c-.09-.26-.18-.53-.26-.8l-16,6.28c.07.2.15.39.23.59C442.23,226.12,447.11,222.89,452.65,221.38ZM220,294.93l-.67-.33c-2.09,4.35-4.49,8.57-5.45,13.42Zm57.88-2.74c.19-.34.46-.61.48-.89.16-2.14.38-4.28.35-6.41,0-1-.81-1.33-1.67-.87a15.18,15.18,0,0,1,.26,3.1C277.1,288.83,276.84,290.49,277.89,292.19Zm-2.44-59.76c4.33,2.31,7.43,2.54,10.39.76-1.92,0-3.47.09-5,0S277.76,232,275.45,232.43ZM415.91,230l4.35-8.76A13.06,13.06,0,0,0,415.91,230Zm-150.14.74v2.32l1-1.32,5.35.9C270.46,230.54,268.18,231.25,265.77,230.74ZM210.25,375.52c2.11,2.23,5.38,2.6,7.48.75C215.09,377.27,212.7,376.41,210.25,375.52Zm26.48-3.93a8.06,8.06,0,0,0-5.17,6.33Zm73-166.33c-1.28-.95-3.9-.76-5.43.25C306.19,206.42,307.92,205.57,309.7,205.26Zm39.91,26.45-4.48,8.13A19.05,19.05,0,0,0,349.61,231.71ZM191.67,357.41l-.55-.35a16.18,16.18,0,0,0-2.84,7Zm121.92-140,4.56-4.33C316.06,213.4,314.53,214.89,313.59,217.46Zm-45.17,6.48c-1.81,1.5-3.09,2.7-3.55,4.92C266.76,227.73,267.6,226.59,268.42,223.94ZM208.1,319l-.52-.34a13.18,13.18,0,0,0-2.36,6.44Zm90.12-114.77c-.82-1.81-2.41-2.07-5.82-.75ZM267,308.76c.68-.05,1.23,0,1.26-.11.49-1.69,1.9-3.07,1.38-5.13Zm35.34-71.63-.74.25.7,3.31,1.92-.26ZM290.84,322c2-1.62,3.12-3.75,3-5.54Zm9.19-84,3.5-4.2C301.53,234.32,299.89,235.2,300,237.92ZM339,250l.55.27c1.26-2.12,2.51-4.25,3.76-6.37l-.48-.29Q340.86,246.79,339,250Zm-24.8-42.68,4.51,1.27C318.57,206.55,317.41,206.14,314.15,207.3Zm-88.4,171.77c-1.35-1.79-2.93-2.19-5.26-1.45Zm11.72-102.63,3.08-4.34C238.46,272.31,238.11,272.8,237.47,276.44Zm83-61.69a9.71,9.71,0,0,0,.12-5.1A5.21,5.21,0,0,0,320.47,214.75ZM246.2,349c.57-1.67,1.45-3.34,0-5.33Zm61.12-123.91a7.79,7.79,0,0,0,3.2-3.6C308.82,222.37,307.7,223.05,307.32,225.07Zm-68.08,26.39c-2.71,2.28-3,2.92-2.4,4.61Zm177.48-28.67-.46-.21a7.11,7.11,0,0,0-1.8,5C415.21,226,416,224.41,416.72,222.79Zm-97.91-1.89a5.49,5.49,0,0,0,2.17-3.5C319.92,218.37,318.39,219,318.81,220.9Zm-93.34,116-.15.64,3.62.74.13-.58C228,337,226.89,336.26,225.47,336.92ZM238.09,340c1.69,1.83,3,2.36,5.12,2.05Zm57-99.23-.06-.68c-1.14,0-2.32-.29-3.38.31l.05.62Zm-6.52-7.26a5.37,5.37,0,0,0,3.68.92C290.94,233.32,289.92,232.81,288.56,233.51Zm-34,67.89c-.95.22-2.11-.62-3.14.52C252.74,302.66,253.75,302.79,254.57,301.4Zm-61.45,60L191,364.27C193.21,363.66,193.22,363.65,193.12,361.44Zm90.47-156.19c2.14-.72,2.23-.82,2.05-2.28A2.67,2.67,0,0,0,283.59,205.25Zm-9.37,13.27-.57-.52c-1.35.53-1.39,2-1.73,3.32Zm9.34,22.58c-1.67-1.85-1.86-1.9-3.61-1.14Zm1.86-1.19a3.47,3.47,0,0,0,3,.3C286.67,239.34,286.67,239.34,285.42,239.91Zm-17.34,36.73c1.15,1.19,1.86,1.33,3.81.87ZM221.5,334.79c-2.28-1-2.43-1-3.45.51Zm-17.15,13.9.77-2.63C204.12,346.71,203.31,347.43,204.35,348.69Zm89.13-151.82-.12.65,3.69.63.1-.48Zm-26.25,39.7c1,2.32,1,2.32,2.91,2.34Zm-35.78,66.05c.64,2,.64,2,2.67,1.42Zm-6.56-1.42c1.6,1.64,1.6,1.63,3.1.65Zm73.32-61.09c.77,1.06,1.69,1.48,2.89.6ZM193.09,369.62l.7-.31c.4-1.1-.07-1.68-1.76-2Zm45-.16c.46-1,.93-1.91,1.64-3.37A2.68,2.68,0,0,0,238.12,369.46Zm-4.3-85.81c-1.16-.54-2-.39-2.17,1.12Zm-2,82.29.6.43,1.61-2.29-.49-.36Zm-2.24,12.51c-.51-.3-.91-.71-1.15-.63s-.49.59-.73.91c.32.23.63.65.95.64S229.15,378.88,229.56,378.45Zm11.81-80.35-.33.9,2.48.72.21-.56ZM300,230.2l-.47.28c.62,1.91.62,1.91,1.8,2.92C300.77,232.11,300.37,231.15,300,230.2ZM260.8,275.31l.12-.51c-.72-.44-1.39-1.07-2.45,0Zm-20.63,30.41.11-.61a2.42,2.42,0,0,0-3-.07Zm23.4,2.91c0,1.88.72,2.4,2.36,2.1Zm-54.19,30.64-.49-.17-.9,2.51C209.34,340.71,209.34,340.71,209.38,339.27Zm96.77-110.64c-2,.78-2,.78-1.67,2.23C305,230.22,305.39,229.65,306.15,228.63ZM265.42,276l.29-.71-2-.77-.26.66Zm-28.12,83.7-.67-.46-1.17,2.32.56.31Zm9.51-5.24c.31-1.11.48-1.75.78-2.82C246.07,352.38,245.79,353,246.81,354.45Zm-18.92-59.94,3.25,1.25C230.33,294.35,229.65,293.78,227.89,294.51Zm-10.57,75-2.59-.62C215.39,370.2,215.87,370.8,217.32,369.53Zm79.09-134.32v-.7c-.76.07-1.61-.24-2.19.91Zm-86.33,131.9c.94,1.47.94,1.47,2.23,1.21ZM231,337.19l-.35.6c.34,1,1.1.91,2.54.6Zm45.54-55.72.72-.21c-.21-.5-.42-1-.65-1.48a1.53,1.53,0,0,0-.41.14C276.33,280.44,276.45,281,276.57,281.47Zm-31,75.33c1.36.28,1.58-.22,1.25-1.47ZM277,240c-1.32-.84-2-.94-2.72.28Zm-40.76,56.33-.46.62,2.09,1.08.29-.53Zm73.68-63.63-.49-.36a2.45,2.45,0,0,0-1.05,2.42ZM202.76,365.83c.93.95.93.95,1.81.14Zm41.31-96.61-.37.73,1.89.9.25-.49Zm61.61-31.41.82-1.95C305.64,236.28,304.76,236.65,305.68,237.81ZM246.84,300l-.2.67,1.53.25.11-.45ZM252,272.22c.55,1,1.19.73,1.78.55.1,0,.15-.24.31-.55Zm26.31-59.06-.52-.34-.9,1.47.41.28ZM197.65,355.57h.7v-2l-.45-.05Zm3.09-20.49-.42-.11-.43,1.5.47.12Zm21.16,36h-2.05C220.6,372.17,221.12,372.21,221.9,371Zm28.78-64.28c-.25.39-.57.65-.54.87a.87.87,0,0,0,.61.58c.23,0,.66-.38.64-.55S251,307.17,250.68,306.76ZM258,300.9l-.11.69,1.61.16.06-.46Zm-30.44-10.48.28.54,1.38-.77-.25-.46Zm47-5.38-.43-.3-1.05,1.42.46.33Zm-62.12,49.07c.42.25.62.46.79.44s.38-.25.57-.39c-.13-.17-.28-.5-.38-.49A4.09,4.09,0,0,0,212.47,334.11Zm100.4-105.28.43.08.4-1.37c-.47.07-.69.24-.76.45A3.33,3.33,0,0,0,312.87,228.83ZM193.94,365.4l0,.65,1.35-.2,0-.45ZM303.23,243.21c.19-.29.41-.5.41-.7s-.24-.39-.37-.58a2.64,2.64,0,0,0-.52.71C302.71,242.75,303,243,303.23,243.21ZM270.74,301l.56.25.33-1.24-.37-.13Zm-9.08,2.49L262,303c-.14-.07-.33-.23-.41-.19a1.59,1.59,0,0,0-.44.42Zm4.68-5.55-.54-.2-.22,1.32.33.09ZM225,373a4.71,4.71,0,0,0-1-.36c-.1,0-.23.3-.34.46.2.11.39.3.59.31S224.57,373.28,225,373Zm44.62-80.11-.48-.29c-.2.32-.41.63-.61.94a3.07,3.07,0,0,0,.55.28A8.65,8.65,0,0,0,269.62,292.93Z"/><path class="cls-1" d="M317.13,362.14c-2.19,2.31-4.37,4.63-6.57,6.93a20.73,20.73,0,0,1-3.95,3.44l.9-2.16c1.09-.07,1.39-.88,1.41-1.91l-1.36,2c-3.22,3.4-6.45,6.79-9.64,10.23a55.63,55.63,0,0,1-6.47,5.89,33.94,33.94,0,0,0-5.18,5.7c-5.8,7.27-11.53,14.61-17.3,21.92-.61.78-1.3,1.51-2.12,2.44-1.2-1.68-2.31-3.07-3.22-4.57a47.73,47.73,0,0,0-5.41-7.4,19.62,19.62,0,0,1-2.15-3.77l9.65-10.26c2.57-2.73,4.87-5.83,7.82-8.06a64.1,64.1,0,0,0,6.92-6.65,10.15,10.15,0,0,0,3-4.07c.37-1.15,1.49-2.05,2.28-3.06,2.13-2.76,4.42-5.41,6.38-8.29A90.69,90.69,0,0,1,307,343.77c2.11-1.88,4.21-3.76,6.27-5.68.9-.84,1.94-1.51,2.08-3,.07-.75,1.12-1.44,1.77-2.11,2.66-2.76,5.37-5.47,8-8.28.39-.43.27-1.33.44-2.26l2.47-2.74c.4-.44.77-.9,1.18-1.34,4-4.21,7.89-8.48,12-12.6,2.09-2.11,4.43-4,6.72-5.9.55-.46,1.57-.39,2-.88,2.28-2.37,4.44-4.86,6.64-7.3l0,0c1.34-1.15,2.77-2.22,4-3.48,4.83-4.94,9.6-9.93,14.38-14.91,2.12-2.21,4.19-4.46,6.28-6.69.63-.67,1.23-1.35,1.85-2l.45.27c-.82,1.78-1.52,3.62-2.48,5.31a14.23,14.23,0,0,0-2.14,6.23,12.82,12.82,0,0,0-1.46,1.77c-.2.36,0,.93,0,1.4l.68.09.75-3.33c.3-.28.72-.5.88-.85,2-4.32,3.92-8.67,5.9-13a4.39,4.39,0,0,1,1.54-1.8c-.31,2.28-.67,4.49-2.34,6.23-.44.46-1.08,1.05-1.08,1.57,0,2.75-1.22,5.11-2,7.6a6.67,6.67,0,0,0-.19,1l.07-.11-1.08,2.68.07-.08a20.09,20.09,0,0,1-5.92,7.5,44.37,44.37,0,0,0-6,7,11.13,11.13,0,0,0,1.22-.92c2.15-2.19,4.27-4.4,6.41-6.59.35-.36.78-.95,1.15-.93,1,.06,1.25-.62,1.56-1.31.79-1.77,2.26-2.86,4.11-4.22a11.46,11.46,0,0,1-2.64,5.81c-.76.89-1.37,1.9-2,2.86l.11-.11c-.68.28-1.54.37-2,.85-1.5,1.62-2.78,3.44-4.27,5.07q-17.85,19.6-35.75,39.15c-2.12,2.31-4.26,4.6-6.35,6.93a21.62,21.62,0,0,0-1.44,2.06c-2,1.52-3.66,3.43-3.85,5.06l3.8-5.11c1.43-1.28,3-2.47,4.28-3.86,1.92-2,3.64-4.25,5.52-6.32q12.9-14.2,25.84-28.36c1.77-1.93,3.39-4.13,5.49-5.61,2.73-1.91,5.14-4.14,7.65-6.27,2.73-2.32,5.38-4.73,8.06-7.1a1.37,1.37,0,0,1,1.27-.33c-1.55,1.76-3,3.57-4.65,5.26-2.51,2.63-5.14,5.15-7.64,7.78-.41.44-.45,1.22-.67,1.84l.09-.08c-3.27,3.2-6.64,6.31-9.81,9.62q-10.58,11.07-21,22.31c-1.49,1.59-2.78,3.38-4.17,5.07l.1-.09c-1.81,1.85-3.66,3.66-5.39,5.57-1.07,1.17-2,2.5-2.92,3.76l.09-.1-3.68,4.2.09-.1L325,352.49l.09-.09-3.35,2.85c-.49.09-1.12,0-1.43.3a12.45,12.45,0,0,0-1.47,1.95c-.56.59-1.13,1.17-1.69,1.75l.45.34,1.18-2.15c.45-.28.93-.52,1.36-.84s1.11-.92,1.66-1.39l-.39,1.39.08-.1-2.39,2.65-.19.18L317.3,362Zm-33.77,14.31c1.28-.74,2.44-1.57,2.46-3.26,1.76,0,1.95-1.66,2.6-2.82-.85,1-1.71,1.92-2.55,2.9l-2.45,3.24-1.22,1.3.53.34Zm35.55-22.92a13.16,13.16,0,0,0-4.65,5.06,1.54,1.54,0,0,0-1.18,2l1.12-2a12.43,12.43,0,0,0,4.65-5.07c1.95-1.29,3.69-3.29,3.94-5.05Zm39.55-56.41c-.31.08-.72.07-.92.27q-6.36,6.3-12.66,12.66a3.27,3.27,0,0,0-.45,1l.36.24q6.81-7.09,13.61-14.21c1.66-1.12,4.08-3.71,4.45-4.71a17.7,17.7,0,0,0-1.79,1.54C360.14,294.92,359.32,296,358.46,297.12Zm-63.07,80.17q27.18-31.64,54.12-63c-1.54-.8-2.06.43-2.73,1.22-4.22,5-8.37,10.14-12.63,15.15q-15.28,18-30.63,35.85c-2.77,3.24-5.52,6.51-8.38,9.68-5.15,5.7-10.37,11.34-15.54,17-.2.22-.2.63-.29.95l.35.18L292.52,380l.36.27-1.5,2.47c1.85-1.6,3.54-3.08,5.35-4.66ZM331,325l-.38-.45-9.85,10.12.22.21Zm33.84-26.76-.38-.43-5.23,5.58.37.35ZM352.35,310.7l.46.45,3.81-4.21-.41-.37C354.92,308,353.64,309.33,352.35,310.7Zm-39.13,39.37-.51-.46c-1.12,1.38-2.23,2.77-3.34,4.15l.52.43Zm-2.16,12.5-.48-.42q-1.65,1.78-3.28,3.58l.46.42Zm6-23.32-.26-.31c-1.07,1.14-2.13,2.28-3.2,3.41l.05,0Zm-10.32,10.33.55.52c.88-1.24,2.07-2.19,2.63-3.1Zm-4.92,5.69.19.19,3.33-3.26-.37-.36Zm1.78,14.3.56.46,2.1-2.32-.34-.29Zm48.05-59.46c-.06-.85-.09-1.34-.12-1.84a8,8,0,0,0-1.31.26c-.16.06-.21.4-.34.67Zm-10.95,6.32.58.39c.68-.65,1.43-1.25,1.16-2.54Zm24.75-26.69.5.42,1.06-1.4-.37-.3Zm-75.58,79,.4.29c.56-.64,1.11-1.29,1.67-1.94l-.31-.26Zm7.19-8.19.42.34,1.59-2-.34-.26Zm44.22-46.93.44.32,1.23-1.36-.38-.37Zm35.86-30.89-.84-.77c-.27.33-.54.66-.79,1,0,0,.25.29.33.26A12.88,12.88,0,0,0,377.11,282.69Zm-82.45,80.63.22.3.94-1.21-.24-.19C295.27,362.59,295,363,294.66,363.32Zm44-46.16-.44-.43L337.11,318l.38.33Zm-40,58.61-.35-.34c-.3.37-.59.75-.88,1.13l.28.23Zm15.28-13.34.6.63,1.11-1.38-.29-.25Zm59.85-80.23-.24-.27-1.07,1,.24.26ZM273.9,387.64l.35.3.66-.93-.26-.2Z"/><path class="cls-1" d="M281.4,183.34c.41-4,12.81-20.64,16.69-22.12-2.15,3.59-5.63,5.63-7,9.19,1.85-.44,2.1-2.67,4.22-3.53-2.89,6.57-6.66,12.1-10.17,18Z"/><path class="cls-1" d="M267.73,422.17a28.83,28.83,0,0,1-.91-3.1,2,2,0,0,1,.43-1.37q5.44-7.08,11-14.12c2-2.55,4-5.14,6.09-7.56,1.89-2.15,4-4.07,6-6.12a25.07,25.07,0,0,1,3.82-3.48,5,5,0,0,1-.45.93c-1.94,2.37-3.83,4.79-5.86,7.08-1.52,1.72-3.24,3.27-4.84,4.91-.57.59-1.16,1.21-.58,1.92L280,404.15c-1.39,1.61-2.89,3.15-4.14,4.86a63.17,63.17,0,0,0-4,6.22c-.8,1.43-1.93,2.73-1.8,4.66.05.77-1,1.61-1.56,2.43Z"/><path class="cls-1" d="M317.13,362.14l.17-.16,1.59-2.65.19-.18a4.07,4.07,0,0,0,2.39-2.65l-.08.1,3.68-4.2-.09.09,2.14-2.67-.09.1a8.3,8.3,0,0,0,3.68-4.2l-.09.1c1.13-1.11,2.33-2.15,3.36-3.33,1.71-1.95,3.3-4,4.95-6l-.1.09c.8-.69,1.58-1.41,2.4-2.08s1.67-1.27,2.81-2.13c0,.72,0,1,.07,1.29L342.25,336c-.79,1-1.58,1.93-2.36,2.9l-.2.18-1.88,2.13.06-.08c-2.3,2.51-4.58,5-6.9,7.53-3.14,3.35-6.33,6.66-9.47,10-1.45,1.54-2.84,3.11-4.26,4.67l-.48-.32Z"/><path class="cls-1" d="M381.43,277.06c1.05-2.3,2.19-4.57,3.14-6.91,1.63-4,3.15-8.1,4.73-12.15.25-.63.54-1.25.84-1.87.41-.85,1.06-1,2.23-.42-.73,2.17-1.42,4.4-2.23,6.6-1.54,4.23-3.16,8.44-4.73,12.66-.89,2.38-2,3.73-4.72,5.78-.08-.46-.14-.83-.2-1.2l-.07.08L381.5,277Z"/><path class="cls-1" d="M386.38,274.45c2.55-6.25,4.74-12.64,7.17-18.94l.56.11c.35.75.69,1.49,1.1,2.41-1.43.6-1.41,1.8-1.59,3.08a61.2,61.2,0,0,1-1.65,8,7.78,7.78,0,0,1-1.9,2.67c-1,1.06-2,2-3.06,3Z"/><path class="cls-1" d="M496.88,243.11l.74,1.28a5.65,5.65,0,0,1-1,.5q-6.28,1.68-12.59,3.32a3.9,3.9,0,0,1-3.42-.5,8.48,8.48,0,0,1,1.58-.94c3.91-1.19,7.81-2.39,11.76-3.48a13.23,13.23,0,0,1,3-.11Z"/><path class="cls-1" d="M197.36,388.73c-6.06-.86-11.74-3.14-17.74-4.72l.6-2.39,17.31,6.6Z"/><path class="cls-1" d="M491,238.24a9.31,9.31,0,0,1,2.09-1.23c2.71-.75,5.45-1.39,8.19-2,1.74-.4,2.12-.28,3.76.76-1.42,1-12.44,4.06-14.79,3.87l6-2.15-.19-.59L491,238.2Z"/><path class="cls-1" d="M342.25,336l1.86-2.33c1.32-1.44,2.6-2.92,4-4.32a6.27,6.27,0,0,1,2.21-1.38c-4,4.65-7.14,10.09-12.09,14.12l-.33-1-.06.08,1.88-2.13.2-.18C340.67,337.92,341.46,337,342.25,336Z"/><path class="cls-1" d="M474.23,241.54c.23-2,.4-3.43.6-5.18a37.35,37.35,0,0,1,6.75,2.21l0,.62Z"/><path class="cls-1" d="M387.08,279.39l-3.28,2.42c.4-3.68,1.49-4.8,6.25-8.7a4.52,4.52,0,0,1-1.22,3.95c-.61.81-1.23,1.61-1.85,2.41Z"/><path class="cls-1" d="M496.68,53.23a47.51,47.51,0,0,1,13.09-6.4A41.42,41.42,0,0,1,496.68,53.23Z"/><path class="cls-1" d="M373.71,299.66l3.35-2.3c-1.52,2.94-9.54,11.56-11.82,12.39.71-.79,1.44-1.55,2.11-2.36,2.16-2.59,4.3-5.21,6.45-7.82Z"/><path class="cls-1" d="M481.79,243.59c2.93-.77,5.29-1.42,7.68-2a2.24,2.24,0,0,1,2.85,1.1C488.89,243.44,485.89,245.63,481.79,243.59Z"/><path class="cls-1" d="M387.08,279.39l-.1.08,1-.18a5.08,5.08,0,0,1-1.44,3.69c-1.64,1.56-3.43,3-5.31,4.58-.49-1.4.32-2,.9-2.67C383.75,283,385.42,281.22,387.08,279.39Z"/><path class="cls-1" d="M392.65,273.56l1.43-.49c-.5,3.53-2.63,5.44-5.16,7.7-.05-3.42,2.15-5.07,3.64-7.1Z"/><path class="cls-1" d="M476.63,241.89l8.43-2.56C481.47,243.29,480.82,243.5,476.63,241.89Z"/><path class="cls-1" d="M473.87,246.27a9.52,9.52,0,0,1,8.67-.82C479.54,246.61,477.12,248,473.87,246.27Z"/><path class="cls-1" d="M382.73,224.35c-1.74-1.73-3.49-3.45-5.22-5.19-.62-.63-1.19-1.31-1.79-2l.31-.44c.42.09,1,0,1.24.3,1.94,1.89,3.82,3.84,5.7,5.79.58.6.21,1-.31,1.45Z"/><path class="cls-1" d="M305.58,341.54c3-3,6-6,9.49-9.48-.18.92-.13,1.35-.32,1.53-1.58,1.53-3.22,3-4.81,4.52-1.33,1.26-2.63,2.57-3.94,3.86Z"/><path class="cls-1" d="M397.53,256.43c-1.83-2.36-2.25-5.57-1-7.43C397.59,250.4,398.12,254.4,397.53,256.43Z"/><path class="cls-1" d="M392.65,273.56l-.09.11-1,.33a10.6,10.6,0,0,1,3.52-6.11C395.7,270,395.43,270.65,392.65,273.56Z"/><path class="cls-1" d="M355.41,320q-3.42,3.8-6.85,7.6l-.49-.46,7-7.49Z"/><path class="cls-1" d="M370,210.43l5.32,3.31C372.94,214.94,371.65,214.2,370,210.43Z"/><path class="cls-1" d="M174.37,382.85c.68-1.1,2.47.42,2.5-1.47.42.16,1.15.27,1.18.47a5.19,5.19,0,0,1-.27,1.62C175.12,384.32,175.12,384.32,174.37,382.85Z"/><path class="cls-1" d="M385.17,287.93a8.42,8.42,0,0,1-3.89,4.92C382,290.71,383.61,289.36,385.17,287.93Z"/><path class="cls-1" d="M244.08,410.23c-2.05.15-3.23-1.09-4.38-2.38A5.22,5.22,0,0,1,244.08,410.23Z"/><path class="cls-1" d="M472.88,219c.19,2.3.39,4.6.58,6.89l-.69.06-.39-6.82Z"/><path class="cls-1" d="M378.4,288.62l-.11.11,1.12-.69c-.21,1.68-.58,2.09-3.8,3.87Z"/><path class="cls-1" d="M406.85,111.71c-.43,1.51-1.62,1.77-3.4,1.92A6.47,6.47,0,0,1,406.85,111.71Z"/><path class="cls-1" d="M479.59,249.15a2.65,2.65,0,0,1-3.5-.05C477.24,248,478.22,248.34,479.59,249.15Z"/><path class="cls-1" d="M415.2,239.51l-3.42.72C412.4,238.64,412.56,238.59,415.2,239.51Z"/><path class="cls-1" d="M368.85,209c-.87-.5-1.93-.78-2-2.23l2.4,1.8Z"/><path class="cls-1" d="M201.72,298.53l-1.23,2.52-.49-.24c.43-.83.87-1.66,1.31-2.48Z"/><path class="cls-1" d="M476.31,244l-2.49.5C474.32,243.28,474.32,243.28,476.31,244Z"/><path class="cls-1" d="M470.82,251.76c-.12-.89.13-1.44,1-1.39.21,0,.61.48.57.67C472.2,251.92,471.54,251.88,470.82,251.76Z"/><path class="cls-1" d="M351.37,326l1.81-2.15.48.4-1.83,2.13Z"/><path class="cls-1" d="M356.51,291.64c-.21-1.34.9-1.76,1.93-2.23q-1,1.13-1.95,2.25S356.51,291.64,356.51,291.64Z"/><path class="cls-1" d="M438.53,147.11c.33.64.65,1.28,1,1.92C438.27,148.86,438.1,148.14,438.53,147.11Z"/><path class="cls-1" d="M171.76,365.13l.6-2.06C172.74,364.16,172.74,364.16,171.76,365.13Z"/><path class="cls-1" d="M395.55,263.48c.29-.63.59-1.26,1-2.08C396.79,262.65,396.79,262.65,395.55,263.48Z"/><path class="cls-1" d="M169.76,380.06v1.5h-.4v-1.5Z"/><path class="cls-1" d="M491,238.2l-3.24,1-.12-.5a3.87,3.87,0,0,1,3.4-.49S491,238.2,491,238.2Z"/><path class="cls-1" d="M423.25,125l1.27,1.56L424,127c-.42-.54-.84-1.08-1.27-1.61Z"/><path class="cls-1" d="M396.46,271.84l.79-1.31.53.3-.72,1.39Z"/><path class="cls-1" d="M397.81,259.29c0-.46-.07-.91-.1-1.37l.43-.07c.08.46.17.91.26,1.36Z"/><path class="cls-1" d="M413.27,105.06c.39-.43.78-.85,1.18-1.27l.31.29-1.21,1.23Z"/><path class="cls-1" d="M453.49,168.51l-.27-1.5.53-.14c.15.48.31,1,.47,1.45Z"/><path class="cls-1" d="M279.49,182l.66-1.41.34.15c-.21.48-.42.95-.62,1.42Z"/><path class="cls-1" d="M474.79,249.71c.12.23.37.52.31.6a1.43,1.43,0,0,1-.67.45c-.06,0-.36-.35-.33-.45S474.42,250,474.79,249.71Z"/><path class="cls-1" d="M355.61,322l-.78.82-.26-.22.72-.94Z"/><path class="cls-1" d="M393,245.32l-.69.89L392,246l.66-.92Z"/><path class="cls-1" d="M395.11,276.34l.68-1,.31.2-.68,1Z"/><path class="cls-1" d="M137.77,588.67l5.51-8.26c-1.15,3.2-3.13,5.86-4.92,8.64Z"/><path class="cls-1" d="M150.6,561.18l1.74-2.09c.1,1.61-.15,2.33-1.22,2.52Z"/><path class="cls-1" d="M61.21,593.17c.74-.89,1.45-1.8,2.22-2.66.95-1,1.95-2,2.93-3l2.34-1.24.33.47Z"/><path class="cls-1" d="M52,600.29l4-3,2.23-1.65c-1.62,1.69-3.22,3.41-4.89,5.06C52.77,601.26,52.24,601,52,600.29Z"/><path class="cls-1" d="M58.12,595.73c.85-1.13,1.6-2.39,3.18-2.63Z"/><path class="cls-1" d="M29.86,639.48l1.4-1c-.67,1.33-.67,1.33-1.34.93Z"/><path class="cls-1" d="M67.32,553.57c-.95,1.2-1.72,2.6-3.7,3.15C64.27,554.62,66,554.29,67.32,553.57Z"/><path class="cls-1" d="M71.88,549.41,69.71,552l-.47-.46c.59-1,1.73-1.46,2.7-2.08Z"/><path class="cls-1" d="M83.08,537.42l1.3-2,.43.28-1.36,2Z"/><path class="cls-1" d="M71.94,549.47l2.24-1.84c-.48,1-1.1,1.84-2.3,1.78Z"/><path d="M233.81,398.85c-.81-.44-1.64-.84-2.43-1.31-5.56-3.31-11.7-5-17.89-6.71-5.9-1.63-11.67-3.75-17.49-5.66-.21-.07-.35-.31-.7-.63,1.26-.65,2.25-.06,3.22.26,5.42,1.77,10.83,3.6,16.26,5.35,1.78.57,3.61,1,5.43,1.43,4.62,1.14,8.6,3.7,12.76,5.84a6.51,6.51,0,0,1,1.14,1Z"/><path d="M228.42,270.34c-.68,5.48-4.13,9.66-6.41,14.4-.07-2.82,1.78-4.87,2.87-7.22S227.24,272.73,228.42,270.34Z"/><path d="M257.73,218.41l.31-1.74-.3-.23-3.64,5.25c-.15-2.19,1.52-4.55,7-9.65-.9,2.23-1.25,4.73-3.42,6.32Z"/><path d="M452.65,221.38c-5.54,1.51-10.42,4.74-16,6.07-.08-.2-.16-.39-.23-.59l16-6.28C452.47,220.85,452.56,221.12,452.65,221.38Z"/><path d="M257.67,218.36a23.85,23.85,0,0,1-1.11,3.57c-1.52,3.14-3.18,6.22-4.8,9.32a13,13,0,0,1-.84,1.25c.28-2.23,4.48-10.76,6.81-14.08Z"/><path d="M220,294.93,213.89,308c1-4.85,3.36-9.07,5.45-13.42Z"/><path d="M277.89,292.19c-1.05-1.7-.79-3.36-.58-5.07a15.18,15.18,0,0,0-.26-3.1c.86-.46,1.65-.14,1.67.87,0,2.13-.19,4.27-.35,6.41C278.35,291.58,278.08,291.85,277.89,292.19Z"/><path d="M275.45,232.43c2.31-.46,3.78.62,5.38.74s3.09,0,5,0C282.88,235,279.78,234.74,275.45,232.43Z"/><path d="M415.91,230a13.06,13.06,0,0,1,4.35-8.76Z"/><path d="M265.77,230.74c2.41.51,4.69-.2,6.37,1.9l-5.35-.9-1,1.32Z"/><path d="M210.25,375.52c2.45.89,4.84,1.75,7.48.75C215.63,378.12,212.36,377.75,210.25,375.52Z"/><path d="M236.73,371.59l-5.17,6.33A8.06,8.06,0,0,1,236.73,371.59Z"/><path d="M309.7,205.26c-1.78.31-3.51,1.16-5.43.25C305.8,204.5,308.42,204.31,309.7,205.26Z"/><path d="M349.61,231.71a19.05,19.05,0,0,1-4.48,8.13Z"/><path d="M426.13,231.39c.56-.45,1.11-.92,1.67-1.36a18.9,18.9,0,0,1,2.12-1.59c1.2-.69,2.48-1.26,3.72-1.88l-.06,0c-.66.45-1.69.76-1.94,1.38-1,2.6-3.46,2.7-5.57,3.43Z"/><path d="M191.67,357.41l-3.39,6.67a16.18,16.18,0,0,1,2.84-7Z"/><path d="M313.59,217.46c.94-2.57,2.47-4.06,4.56-4.33Z"/><path d="M268.42,223.94c-.82,2.65-1.66,3.79-3.55,4.92C265.33,226.64,266.61,225.44,268.42,223.94Z"/><path d="M208.1,319l-2.88,6.1a13.18,13.18,0,0,1,2.36-6.44Z"/><path d="M298.22,204.19l-5.82-.75C295.81,202.12,297.4,202.38,298.22,204.19Z"/><path d="M267,308.76l2.64-5.24c.52,2.06-.89,3.44-1.38,5.13C268.2,308.75,267.65,308.71,267,308.76Z"/><path d="M302.31,237.13l1.88,3.3-1.92.26-.7-3.31Z"/><path d="M290.84,322l3-5.54C294,318.21,292.83,320.34,290.84,322Z"/><path d="M300,237.92c-.14-2.72,1.5-3.6,3.5-4.2Z"/><path d="M339,250q1.91-3.19,3.83-6.39l.48.29c-1.25,2.12-2.5,4.25-3.76,6.37Z"/><path d="M314.15,207.3c3.26-1.16,4.42-.75,4.51,1.27Z"/><path d="M225.75,379.07l-5.26-1.45C222.82,376.88,224.4,377.28,225.75,379.07Z"/><path d="M237.47,276.44c.64-3.64,1-4.13,3.08-4.34Z"/><path d="M320.47,214.75a5.21,5.21,0,0,1,.12-5.1A9.71,9.71,0,0,1,320.47,214.75Z"/><path d="M246.2,349v-5.33C247.65,345.64,246.77,347.31,246.2,349Z"/><path d="M307.32,225.07c.38-2,1.5-2.7,3.2-3.6A7.79,7.79,0,0,1,307.32,225.07Z"/><path d="M239.24,251.46l-2.4,4.61C236.25,254.38,236.53,253.74,239.24,251.46Z"/><path d="M416.72,222.79c-.75,1.62-1.51,3.23-2.26,4.84a7.11,7.11,0,0,1,1.8-5Z"/><path d="M318.81,220.9c-.42-1.87,1.11-2.53,2.17-3.5A5.49,5.49,0,0,1,318.81,220.9Z"/><path d="M225.47,336.92c1.42-.66,2.5.11,3.6.8l-.13.58-3.62-.74Z"/><path d="M238.09,340l5.12,2.05C241.06,342.36,239.78,341.83,238.09,340Z"/><path d="M295.08,240.77l-3.39.25-.05-.62c1.06-.6,2.24-.29,3.38-.31Z"/><path d="M288.56,233.51c1.36-.7,2.38-.19,3.68.92A5.37,5.37,0,0,1,288.56,233.51Z"/><path d="M254.57,301.4c-.82,1.39-1.83,1.26-3.14.52C252.46,300.78,253.62,301.62,254.57,301.4Z"/><path d="M193.12,361.44c.1,2.21.09,2.22-2.15,2.83Z"/><path d="M283.59,205.25a2.67,2.67,0,0,1,2.05-2.28C285.82,204.43,285.73,204.53,283.59,205.25Z"/><path d="M274.22,218.52l-2.3,2.8c.34-1.29.38-2.79,1.73-3.32Z"/><path d="M283.56,241.1,280,240C281.7,239.2,281.89,239.25,283.56,241.1Z"/><path d="M285.42,239.91c1.25-.57,1.25-.57,3,.3A3.47,3.47,0,0,1,285.42,239.91Z"/><path d="M268.08,276.64l3.81.87C269.94,278,269.23,277.83,268.08,276.64Z"/><path d="M221.5,334.79l-3.45.51C219.07,333.79,219.22,333.76,221.5,334.79Z"/><path d="M204.35,348.69c-1-1.26-.23-2,.77-2.63Z"/><path d="M293.48,196.87l3.67.8-.1.48-3.69-.63Z"/><path d="M267.23,236.57l2.91,2.34C268.24,238.89,268.24,238.89,267.23,236.57Z"/><path d="M231.45,302.62l2.67,1.42C232.09,304.59,232.09,304.59,231.45,302.62Z"/><path d="M224.89,301.2l3.1.65C226.49,302.83,226.49,302.84,224.89,301.2Z"/><path d="M298.21,240.11l2.89.6C299.9,241.59,299,241.17,298.21,240.11Z"/><path d="M193.09,369.62,192,367.3c1.69.33,2.16.91,1.76,2Z"/><path d="M238.12,369.46a2.68,2.68,0,0,1,1.64-3.37C239.05,367.55,238.58,368.5,238.12,369.46Z"/><path d="M233.82,283.65l-2.17,1.12C231.82,283.26,232.66,283.11,233.82,283.65Z"/><path d="M231.8,365.94l1.72-2.22.49.36-1.61,2.29Z"/><path d="M229.56,378.45c-.41.43-.67.92-.93.92s-.63-.41-.95-.64c.24-.32.42-.81.73-.91S229.05,378.15,229.56,378.45Z"/><path d="M241.37,298.1l2.36,1.06-.21.56L241,299Z"/><path d="M300,230.2c.39,1,.79,1.91,1.33,3.2-1.18-1-1.18-1-1.8-2.92Z"/><path d="M260.8,275.31l-2.33-.51c1.06-1.07,1.73-.44,2.45,0Z"/><path d="M240.17,305.72l-2.9-.68a2.42,2.42,0,0,1,3,.07Z"/><path d="M263.57,308.63l2.36,2.1C264.29,311,263.59,310.51,263.57,308.63Z"/><path d="M209.38,339.27c0,1.44,0,1.44-1.39,2.34l.9-2.51Z"/><path d="M336.58,255.3l-2.33,3.21c.45-1.32.74-2.77,2.35-3.17Z"/><path d="M306.15,228.63c-.76,1-1.2,1.59-1.67,2.23C304.17,229.41,304.17,229.41,306.15,228.63Z"/><path d="M265.42,276l-2-.82.26-.66,2,.77Z"/><path d="M237.3,359.69,236,361.86l-.56-.31,1.17-2.32Z"/><path d="M246.81,354.45c-1-1.45-.74-2.07.78-2.82C247.29,352.7,247.12,353.34,246.81,354.45Z"/><path d="M227.89,294.51c1.76-.73,2.44-.16,3.25,1.25Z"/><path d="M217.32,369.53c-1.45,1.27-1.93.67-2.59-.62Z"/><path d="M229.61,369.41l-1.21,3.2c-.33-1.83-.33-1.83,1.27-3.14Z"/><path d="M296.41,235.21l-2.18.21c.58-1.15,1.43-.84,2.19-.91Z"/><path d="M271,207.51l2.32-3.24c-.66,2.18-.66,2.18-2.36,3.18Z"/><path d="M210.08,367.11l2.23,1.21C211,368.58,211,368.58,210.08,367.11Z"/><path d="M231,337.19l2.19,1.2c-1.44.31-2.2.41-2.54-.6Z"/><path d="M276.57,281.47c-.12-.51-.24-1-.34-1.55a1.53,1.53,0,0,1,.41-.14c.23.48.44,1,.65,1.48Z"/><path d="M245.52,356.8l1.25-1.47C247.1,356.58,246.88,357.08,245.52,356.8Z"/><path d="M277,240l-2.72.28C275.05,239,275.69,239.11,277,240Z"/><path d="M236.25,296.28l1.92,1.17-.29.53-2.09-1.08Z"/><path d="M309.93,232.65l-1.54,2.06a2.45,2.45,0,0,1,1.05-2.42Z"/><path d="M202.76,365.83l1.81.14C203.69,366.78,203.69,366.78,202.76,365.83Z"/><path d="M244.07,269.22l1.77,1.14-.25.49-1.89-.9Z"/><path d="M305.68,237.81c-.92-1.16,0-1.53.82-1.95Z"/><path d="M246.84,300l1.44.47-.11.45-1.53-.25Z"/><path d="M252,272.22h2.09c-.16.31-.21.52-.31.55C253.15,273,252.51,273.19,252,272.22Z"/><path d="M270.92,207.45c.29,1.4-.7,2.15-1.26,3.11l-.46-.25,1.77-2.79Z"/><path d="M278.27,213.16l-1,1.41-.41-.28.9-1.47Z"/><path d="M197.65,355.57l.25-2,.45.05v2Z"/><path d="M200.74,335.08l-.38,1.51-.47-.12.43-1.5Z"/><path d="M221.9,371c-.78,1.17-1.3,1.13-2.05,0Z"/><path d="M250.68,306.76c.35.41.69.64.71.9s-.41.54-.64.55a.87.87,0,0,1-.61-.58C250.11,307.41,250.43,307.15,250.68,306.76Z"/><path d="M258,300.9l1.56.39-.06.46-1.61-.16Z"/><path d="M227.59,290.42l1.41-.69.25.46-1.38.77Z"/><path d="M274.59,285l-1,1.45-.46-.33,1.05-1.42Z"/><path d="M336.6,255.34a1.85,1.85,0,0,1,1.08-2.35c-.37.76-.75,1.52-1.11,2.29Z"/><path d="M212.47,334.11a4.09,4.09,0,0,1,1-.44c.1,0,.25.32.38.49-.19.14-.37.36-.57.39S212.89,334.36,212.47,334.11Z"/><path d="M312.87,228.83a3.33,3.33,0,0,1,.07-.84c.07-.21.29-.38.76-.45l-.4,1.37Z"/><path d="M193.94,365.4h1.34l0,.45-1.35.2Z"/><path d="M303.23,243.21c-.22-.24-.52-.46-.48-.57a2.64,2.64,0,0,1,.52-.71c.13.19.37.39.37.58S303.42,242.92,303.23,243.21Z"/><path d="M270.74,301l.52-1.12.37.13-.33,1.24Z"/><path d="M261.66,303.5l-.49-.28a1.59,1.59,0,0,1,.44-.42c.08,0,.27.12.41.19Z"/><path d="M266.34,298l-.43,1.21-.33-.09.22-1.32Z"/><path d="M225,373c-.43.24-.61.42-.78.41s-.39-.2-.59-.31c.11-.16.24-.46.34-.46A4.71,4.71,0,0,1,225,373Z"/><path d="M229.67,369.47c-.34-1.05.24-1.45,1.39-1.38l-1.46,1.32Z"/><path d="M269.62,292.93a8.65,8.65,0,0,1-.54.93,3.07,3.07,0,0,1-.55-.28c.2-.31.41-.62.61-.94Z"/><path d="M433.64,226.56l1.42-.74c-.18,1.14-.89.77-1.47.7Z"/><path d="M262.91,222.11l-.82,1.53-.39-.31,1.28-1.15Z"/><path d="M263,222.18c.22-.51.45-1,.68-1.52l.45.31-1.2,1.14Z"/><path d="M295.39,377.29l1.34.82c-1.81,1.58-3.5,3.06-5.35,4.66l1.5-2.47-.36-.27-12.86,14.35-.35-.18c.09-.32.09-.73.29-.95,5.17-5.68,10.39-11.32,15.54-17,2.86-3.17,5.61-6.44,8.38-9.68q15.33-17.93,30.63-35.85c4.26-5,8.41-10.11,12.63-15.15.67-.79,1.19-2,2.73-1.22Q322.5,345.74,295.39,377.29Z"/><path d="M358.4,297.06q-6.81,7.11-13.61,14.21l-.36-.24a3.27,3.27,0,0,1,.45-1q6.31-6.36,12.66-12.66c.2-.2.61-.19.92-.27Z"/><path d="M331,325l-10,9.88-.22-.21,9.85-10.12Z"/><path d="M338.93,336.49c-1.65,2-3.24,4.05-4.95,6-1,1.18-2.23,2.22-3.36,3.33,1-1.26,1.85-2.59,2.92-3.76C335.27,340.15,337.12,338.34,338.93,336.49Z"/><path d="M364.8,298.27l-5.24,5.5-.37-.35,5.23-5.58Z"/><path d="M358.46,297.12c.86-1.08,1.68-2.2,2.6-3.23a17.7,17.7,0,0,1,1.79-1.54c-.37,1-2.79,3.59-4.45,4.71Z"/><path d="M352.35,310.7c1.29-1.37,2.57-2.75,3.86-4.13l.41.37-3.81,4.21Z"/><path d="M318.86,353.47a12.52,12.52,0,0,1-4.66,5.07l.06,0a13.16,13.16,0,0,1,4.65-5.06Z"/><path d="M313.22,350.07l-3.33,4.12-.52-.43c1.11-1.38,2.22-2.77,3.34-4.15Z"/><path d="M311.06,362.57l-3.3,3.58-.46-.42q1.63-1.8,3.28-3.58Z"/><path d="M318.91,353.53l3.88-5.11c-.25,1.76-2,3.76-3.93,5.05Z"/><path d="M328.56,342.63l-3.8,5.11c.19-1.63,1.82-3.54,3.85-5.06Z"/><path d="M317,339.25l-3.41,3.15-.05,0c1.07-1.13,2.13-2.27,3.2-3.41Z"/><path d="M306.71,349.58l3.18-2.58c-.56.91-1.75,1.86-2.63,3.1Z"/><path d="M330.71,345.72a8.3,8.3,0,0,1-3.68,4.2Z"/><path d="M301.79,355.27l3.15-3.43.37.36L302,355.46Z"/><path d="M325.07,352.4l-3.68,4.2.39-1.39,0,0Z"/><path d="M378.75,276.3l-.75,3.33-.68-.09c0-.47-.17-1,0-1.4a12.82,12.82,0,0,1,1.46-1.77Z"/><path d="M303.57,369.57l2.32-2.15.34.29-2.1,2.32Z"/><path d="M285.85,373.25l2.57-2.88c-.65,1.16-.84,2.8-2.6,2.82Z"/><path d="M351.62,310.11l-1.77-.91c.13-.27.18-.61.34-.67a8,8,0,0,1,1.31-.26Z"/><path d="M340.67,316.43l1.74-2.15c.27,1.29-.48,1.89-1.16,2.54Z"/><path d="M321.78,355.21c-.55.47-1.09,1-1.66,1.39s-.91.56-1.36.84l.06.06a12.45,12.45,0,0,1,1.47-1.95c.31-.28.94-.21,1.43-.3Z"/><path d="M365.42,289.74l1.19-1.28.37.3-1.06,1.4Z"/><path d="M289.84,368.7l1.76-1.91.31.26c-.56.65-1.11,1.3-1.67,1.94Z"/><path d="M285.82,373.19c0,1.69-1.18,2.52-2.46,3.26l.06.06c.82-1.08,1.63-2.16,2.44-3.25Z"/><path d="M297,360.51l1.67-1.91.34.26-1.59,2Z"/><path d="M341.25,313.58l1.29-1.41.38.37-1.23,1.36Z"/><path d="M377.11,282.69a12.88,12.88,0,0,1-1.3.5c-.08,0-.34-.25-.33-.26.25-.35.52-.68.79-1Z"/><path d="M321.47,356.5a4.07,4.07,0,0,1-2.39,2.65Z"/><path d="M294.66,363.32c.31-.36.61-.73.92-1.1l.24.19-.94,1.21Z"/><path d="M318.76,357.44l-1.18,2.15-.45-.34c.56-.58,1.13-1.16,1.69-1.75Z"/><path d="M327.12,349.82,325,352.49Z"/><path d="M307.56,370.41l1.36-2c0,1-.32,1.84-1.41,1.91Z"/><path d="M338.63,317.16l-1.14,1.15-.38-.33,1.08-1.25Z"/><path d="M298.65,375.77l-.95,1-.28-.23c.29-.38.58-.76.88-1.13Z"/><path d="M314.2,358.54l-1.12,2a1.54,1.54,0,0,1,1.18-2Z"/><path d="M313.93,362.43l1.42-1,.29.25-1.11,1.38Z"/><path d="M373.78,282.2l-1.07,1-.24-.26,1.07-1Z"/><path d="M318.89,359.33,317.3,362Z"/><path d="M273.9,387.64l.75-.83.26.2-.66.93Z"/><path d="M381.5,277l-1.08,2.68Z"/><path d="M283.36,376.45l-.63,1.7-.53-.34,1.22-1.3Z"/><path d="M342.25,336c-.79,1-1.58,1.93-2.36,2.9C340.67,337.92,341.46,337,342.25,336Z"/><path d="M339.69,339.07l-1.88,2.13Z"/></g></g></svg>